<svg width="36" height="36" viewBox="0 0 36 36" fill="none" xmlns="http://www.w3.org/2000/svg">
<g id="verify" opacity="0.7">
<g id="Group">
<path id="Vector" d="M16.0866 23.013C15.7703 23.013 15.4699 22.8865 15.2485 22.6651L11.4216 18.8381C10.963 18.3795 10.963 17.6205 11.4216 17.1619C11.8802 16.7033 12.6393 16.7033 13.0979 17.1619L16.0866 20.1507L22.8866 13.3507C23.3452 12.8921 24.1043 12.8921 24.5629 13.3507C25.0215 13.8093 25.0215 14.5684 24.5629 15.027L16.9248 22.6651C16.7034 22.8865 16.4029 23.013 16.0866 23.013Z" fill="black"/>
<path id="Vector_2" d="M18.0009 35C17.0047 35 16.0084 34.6679 15.2335 34.0037L12.7348 31.853C12.4818 31.6316 11.8493 31.4102 11.5172 31.4102H8.79716C6.4567 31.4102 4.55902 29.5126 4.55902 27.1721V24.4679C4.55902 24.1358 4.33763 23.5191 4.11623 23.266L1.98135 20.7516C0.684603 19.2177 0.684603 16.7981 1.98135 15.2642L4.11623 12.7498C4.33763 12.4967 4.55902 11.88 4.55902 11.5479V8.82791C4.55902 6.48744 6.4567 4.58977 8.79716 4.58977H11.533C11.8651 4.58977 12.4976 4.35256 12.7507 4.14698L15.2493 1.99628C16.7991 0.667907 19.2186 0.667907 20.7684 1.99628L23.267 4.14698C23.52 4.36837 24.1526 4.58977 24.4847 4.58977H27.173C29.5135 4.58977 31.4112 6.48744 31.4112 8.82791V11.5163C31.4112 11.8484 31.6484 12.4809 31.8698 12.734L34.0205 15.2326C35.3489 16.7823 35.3489 19.2019 34.0205 20.7516L31.8698 23.2502C31.6484 23.5033 31.4112 24.1358 31.4112 24.4679V27.1563C31.4112 29.4967 29.5135 31.3944 27.173 31.3944H24.4847C24.1526 31.3944 23.52 31.6316 23.267 31.8372L20.7684 33.9879C19.9935 34.6679 18.9972 35 18.0009 35ZM8.79716 6.96186C7.76926 6.96186 6.93112 7.8 6.93112 8.82791V11.5321C6.93112 12.4335 6.50414 13.5879 5.91902 14.2679L3.78414 16.7823C3.23065 17.4307 3.23065 18.5535 3.78414 19.2019L5.91902 21.7163C6.50414 22.4121 6.93112 23.5507 6.93112 24.4521V27.1563C6.93112 28.1842 7.76926 29.0223 8.79716 29.0223H11.533C12.4502 29.0223 13.6046 29.4493 14.3004 30.0502L16.7991 32.2009C17.4475 32.7544 18.5861 32.7544 19.2344 32.2009L21.733 30.0502C22.4289 29.4651 23.5833 29.0223 24.5005 29.0223H27.1889C28.2168 29.0223 29.0549 28.1842 29.0549 27.1563V24.4679C29.0549 23.5507 29.4819 22.3963 30.0828 21.7005L32.2335 19.2019C32.787 18.5535 32.787 17.4149 32.2335 16.7665L30.0828 14.2679C29.4819 13.5721 29.0549 12.4177 29.0549 11.5005V8.82791C29.0549 7.8 28.2168 6.96186 27.1889 6.96186H24.5005C23.5833 6.96186 22.4289 6.53488 21.733 5.93395L19.2344 3.78326C18.5861 3.22977 17.4475 3.22977 16.7991 3.78326L14.3004 5.94977C13.6046 6.53488 12.4344 6.96186 11.533 6.96186H8.79716Z" fill="black"/>
</g>
</g>
</svg>
