<svg width="59" height="58" viewBox="0 0 59 58" fill="none" xmlns="http://www.w3.org/2000/svg">
<g id="Group 37" opacity="0.3">
<path id="Vector" d="M58.5 29C58.5 45.0153 45.5177 58 29.5 58C13.4823 58 0.5 45.0153 0.5 29C0.5 12.9848 13.4848 0 29.5 0C45.5153 0 58.5 12.9848 58.5 29ZM22.25 49.9863C21.4301 48.1871 20.8266 46.2969 20.452 44.3555C19.6255 44.2226 18.1876 43.935 16.914 43.3864C16.3098 43.1254 15.4833 42.8862 15.6283 43.1061C15.7903 43.3526 15.9884 43.4879 16.1068 43.6643C16.2422 43.8722 14.8067 43.5604 13.7143 42.7992C12.7767 42.1418 12.4722 41.9558 11.4113 42.3473C10.9468 42.5235 10.4994 42.7419 10.0748 42.9997C12.774 46.6608 16.4512 49.4861 20.684 51.1512L22.2476 49.9863H22.25ZM32.9075 18.3183C33.0404 18.3908 33.7751 18.7582 34.2367 18.9708C34.6958 19.1811 35.0293 19.1303 35.155 19.0796C35.2758 19.0288 35.6867 18.7219 36.0202 18.4416C36.2473 18.2555 36.1217 18.2023 35.7737 18.0477C35.1616 17.7922 34.5149 17.6293 33.8548 17.5643H33.792C33.618 17.5643 33.4343 17.6368 33.0622 17.922C32.8809 18.0646 32.6707 18.1854 32.9075 18.3183ZM48.0673 26.0106C47.9996 14.8528 37.6079 7.21617 25.4352 9.4975C23.2602 9.90592 21.6289 10.1742 25.3627 7.86142C27.6609 6.43558 30.7204 5.48583 33.6688 5.28283C32.3107 5.05129 30.9356 4.93487 29.558 4.93483C16.2325 4.93483 5.43 15.6552 5.43 28.8792C5.43 30.8729 5.67892 32.8111 6.14292 34.6647C6.89208 34.4012 7.36575 34.2901 7.36575 34.2901C6.4925 30.4874 6.60396 26.5247 7.68958 22.7771L7.68475 22.794L7.69442 22.7602C8.5652 19.7618 10.0452 16.9753 12.042 14.5749L24.8334 14.5701L19.8067 23.4634H9.91292C8.86674 27.0752 8.81414 30.9023 9.76067 34.5414C9.81383 34.6453 10.8723 36.6318 14.4176 36.6198C14.9855 36.6149 16.6168 36.6028 19.582 36.5473C19.6758 36.547 19.7684 36.5261 19.8532 36.486C19.938 36.4459 20.0129 36.3876 20.0726 36.3153C20.1993 36.1523 20.2749 35.9556 20.2901 35.7498C20.3433 35.3534 20.3988 34.9764 20.3022 34.8073C20.1741 34.5898 19.8116 34.6405 19.0093 35.1939C18.4462 35.5806 18.2383 35.409 18.2456 34.9281C18.2238 34.2901 18.6298 32.9778 19.3717 31.0856C19.7101 30.2204 20.2224 29.0121 20.2973 28.8236C20.713 27.7844 21.1722 27.3083 20.4254 27.5863C18.8981 28.1542 21.4863 24.5388 22.9943 22.7384C23.6952 21.9023 24.4347 21.2884 23.671 21.4189C22.5134 21.6123 25.4714 18.85 26.7112 18.0573C27.5449 17.5208 27.9147 17.168 28.282 16.7862C29.3888 15.6213 29.5314 15.2661 30.4522 14.2994C31.3608 13.3497 31.994 12.9364 32.2913 12.9364C32.5208 12.9364 32.5523 13.1781 32.3638 13.6083C31.472 15.6141 31.1699 16.8949 35.4668 16.6388C37.8109 16.4962 37.6659 18.3957 37.6707 18.3957C43.9879 18.6881 40.4886 24.0748 40.4765 24.0434C39.8482 22.0835 37.6732 22.1923 36.199 22.4122C34.9037 22.6031 35.9694 22.823 36.3561 22.9511C38.7655 23.7558 38.2846 24.6379 38.0719 24.5944C34.7611 23.9419 33.8258 25.7303 33.821 27.4606C33.8065 32.6323 36.2836 37.5381 40.317 38.9977C44.8193 37.0982 48.1108 33.4346 48.0673 26.0106ZM14.1469 16.5687C14.2726 17.197 15.1764 21.2739 15.2779 21.6944C15.3891 22.1681 15.4833 22.3856 15.8918 22.3856H18.0764C18.4268 22.3856 18.5283 22.3083 18.7241 21.9699C19.0431 21.4141 21.902 16.4937 21.902 16.4937C21.902 16.4937 22.2089 16.0128 21.5347 16.0128H20.2224C20.1113 16.0128 19.9953 16.0708 19.9179 16.2062C19.0253 17.7848 18.1359 19.3653 17.2499 20.9477L16.2857 16.3222C16.2857 16.3222 16.2663 16.0128 15.8918 16.0128L14.594 16.0104C14.3282 16.0128 14.0454 16.0588 14.1469 16.5687Z" fill="black"/>
</g>
</svg>
