<svg width="59" height="58" viewBox="0 0 59 58" fill="none" xmlns="http://www.w3.org/2000/svg">
<g id="Group 38" opacity="0.3">
<path id="Vector" d="M45.4282 37.206C42.4678 34.683 33.6736 27.5055 29.5024 27.5055C25.3216 27.5055 16.5346 34.6782 13.5742 37.2036C13.5573 36.6067 13.5403 36.2442 13.5403 35.7125C13.5403 35.7125 13.4678 34.8353 14.2484 33.9605C20.6695 28.1774 27.3999 25.3499 27.6078 25.2605C29.6136 24.4195 29.5024 24.5765 29.5 21.1932C29.5 21.1932 29.5894 21.1884 29.645 21.1932C32.4725 21.4494 40.0753 28.7815 44.5728 33.7357C44.58 33.743 45.4597 34.7555 45.4597 35.8237C45.4597 36.3215 45.4452 36.8145 45.4282 37.206ZM45.3074 33.0687C44.8289 32.5419 33.5745 20.1927 29.5 20.1927C25.4255 20.1927 14.1711 32.5419 13.695 33.0663C13.6467 33.1195 12.5471 34.3689 12.5471 35.8213C12.5471 36.9571 12.622 38.0954 12.622 38.1075C12.6268 38.1606 12.651 38.6391 12.9217 38.772C12.9653 38.7934 13.0133 38.8041 13.0618 38.8035C13.1833 38.7947 13.2991 38.7483 13.3929 38.6705C13.5138 38.5642 24.9808 28.4988 29.5 28.4988C34.0192 28.4988 45.4863 38.5642 45.6023 38.6657C45.6979 38.7459 45.8162 38.794 45.9406 38.8035C45.9891 38.804 46.0371 38.7932 46.0808 38.772C46.3466 38.6415 46.3756 38.1606 46.378 38.105C46.378 38.0954 46.4529 36.9547 46.4529 35.8237C46.4529 34.3689 45.3558 33.1195 45.3074 33.0687ZM37.2116 48.6562H37.2092C36.9063 48.6649 36.6033 48.6649 36.3005 48.6562C35.2976 48.6562 34.2149 47.9022 34.2149 46.6794C34.2149 45.4686 35.2734 44.746 36.2933 44.746C36.5992 44.732 36.9056 44.732 37.2116 44.746C38.2387 44.746 39.2972 45.4686 39.2972 46.6794C39.2972 47.9022 38.2169 48.6586 37.214 48.6586M38.1903 43.98C36.7645 43.9485 35.3145 43.98 35.3048 43.98C33.5648 43.98 32.1463 45.1883 32.1463 46.6721C32.1463 48.1777 33.5624 49.403 35.3048 49.403C35.3169 49.403 36.7645 49.432 38.1928 49.403C39.9376 49.403 41.3562 48.1777 41.3562 46.6721C41.3562 45.2028 39.9666 44.021 38.1903 43.98ZM56.7262 49.3353H58.5V46.7495C58.5 45.2415 57.1467 44.0573 55.4212 44.0573H50.931C50.8585 44.0573 50.6845 44.0742 50.6845 44.253V49.1347C50.6845 49.2652 50.7812 49.3329 50.8754 49.3329H52.7532V45.2511C52.7532 45.0723 52.8861 44.978 53.019 44.978H55.0901C55.6604 44.978 56.5087 45.4976 56.5087 46.6165V49.1299C56.5087 49.1299 56.5135 49.3353 56.7262 49.3353ZM19.2509 45.1061H22.0204V44.2651C22.0204 44.1443 21.9358 44.0573 21.8223 44.0573H14.0986C14.072 44.0573 14.0458 44.0626 14.0213 44.0728C13.9968 44.083 13.9745 44.098 13.9559 44.1169C13.9372 44.1358 13.9225 44.1582 13.9126 44.1828C13.9026 44.2074 13.8977 44.2337 13.898 44.2603V45.1037H15.7443C16.4355 45.1037 16.9019 45.6982 16.9019 46.2516V49.1347C16.9019 49.229 16.9865 49.3353 17.1049 49.3353H18.9778V45.3744C18.9778 45.2245 19.0987 45.1037 19.2485 45.1037M10.7128 49.1347C10.7128 49.2531 10.8192 49.3353 10.9158 49.3353H11.0222L11.0077 49.3474C11.0608 49.3353 11.2421 49.3353 11.8704 49.3353H12.7888V44.2579C12.7888 44.2045 12.7677 44.1532 12.7301 44.1152C12.6926 44.0772 12.6416 44.0555 12.5882 44.0549H10.9158C10.8622 44.0555 10.8109 44.0771 10.773 44.115C10.7351 44.153 10.7135 44.2042 10.7128 44.2579V49.1347ZM25.1983 46.5271V45.4735C25.1983 45.1859 25.4037 44.9853 25.6962 44.9853H28.4512C28.8693 44.9853 29.2245 45.3357 29.2245 45.7514C29.2242 45.8536 29.2037 45.9547 29.1643 46.049C29.1249 46.1433 29.0674 46.2289 28.9949 46.3009C28.9224 46.373 28.8364 46.43 28.7419 46.4688C28.6474 46.5076 28.5461 46.5274 28.4439 46.5271H25.1983ZM29.2293 49.3353H31.2883C31.2569 48.0665 29.935 47.5421 29.7827 47.4865L29.7586 47.4769V47.4044L29.7852 47.3971C30.6697 47.2014 31.2835 46.5271 31.2835 45.7538C31.2835 44.9394 30.486 44.0549 29.1907 44.0549H24.2099C24.0679 44.0533 23.927 44.08 23.7955 44.1336C23.664 44.1872 23.5446 44.2665 23.4442 44.367C23.3438 44.4674 23.2644 44.5868 23.2108 44.7183C23.1572 44.8498 23.1305 44.9907 23.1321 45.1327V49.1323C23.1311 49.1587 23.1355 49.185 23.1451 49.2097C23.1547 49.2343 23.1692 49.2567 23.1877 49.2755C23.2063 49.2943 23.2285 49.3091 23.2531 49.3189C23.2776 49.3288 23.3038 49.3336 23.3302 49.3329H25.2008L25.1983 47.4624H26.9625C28.5333 47.4624 29.181 48.5982 29.2293 49.3353ZM7.56392 45.8287H9.58183C9.14442 44.7243 7.93367 43.9679 6.54408 43.9413L5.92542 43.9268C5.16994 43.8995 4.41365 43.9044 3.65858 43.9413C2.66775 43.9896 2.03942 44.2168 1.428 44.7509C1.14219 44.9875 0.911175 45.2833 0.750946 45.6179C0.590717 45.9526 0.505094 46.318 0.5 46.689C0.5 48.1995 1.84367 49.3836 3.62233 49.444C4.84275 49.4875 4.97567 49.49 6.5755 49.444C8.05692 49.3957 9.12025 48.7263 9.57942 47.5566H7.56392C7.52854 47.5551 7.49345 47.5636 7.46267 47.5812C7.4319 47.5987 7.40668 47.6245 7.38992 47.6557C7.20151 47.9699 6.93422 48.2292 6.61457 48.4081C6.29492 48.5871 5.93404 48.6792 5.56775 48.6755C5.1545 48.6925 4.65425 48.6755 4.65425 48.6755C3.62958 48.6755 2.56867 47.936 2.56867 46.6987V46.6866C2.57592 45.4565 3.632 44.7219 4.65908 44.7219C4.77508 44.717 5.18833 44.7025 5.56775 44.7219C6.3145 44.7219 7.03225 45.1182 7.39475 45.732C7.41186 45.7617 7.43654 45.7863 7.46627 45.8032C7.49599 45.8202 7.52969 45.829 7.56392 45.8287ZM49.5752 48.3855H44.6936C44.5268 48.3855 44.4132 48.2768 44.4132 48.1197V47.1144H48.6424V46.1888H44.4132L44.4108 45.2705C44.4108 45.268 44.4084 45.169 44.4833 45.0916C44.5365 45.0336 44.6187 45.0046 44.725 45.0046H49.5728V44.2627C49.5728 44.1999 49.5559 44.1515 49.5197 44.1177C49.452 44.0525 49.3408 44.0573 49.336 44.0573H42.5452C42.5234 44.0573 42.3373 44.0621 42.3373 44.2627V48.2599C42.3373 48.7891 42.7458 49.3353 43.4248 49.3353H49.3698C49.4206 49.3353 49.4713 49.3111 49.51 49.2749C49.5296 49.2575 49.5456 49.2364 49.5568 49.2127C49.568 49.189 49.5743 49.1633 49.5752 49.1371V48.3855ZM48.0576 42.1481C47.8397 42.02 47.59 41.9564 47.3374 41.9645C47.0857 41.9577 46.8372 42.0213 46.6197 42.1481C46.4287 42.2665 46.2789 42.4236 46.0542 42.4236C45.8294 42.4236 45.6941 42.2665 45.4935 42.1481C45.2754 42.0227 45.0273 41.9592 44.7757 41.9645C44.5232 41.9566 44.2735 42.0203 44.0556 42.1481C43.8574 42.269 43.7583 42.414 43.7583 42.5855C43.7583 42.7571 43.8574 42.9045 44.0556 43.0254C44.2562 43.1462 44.493 43.2066 44.7757 43.2066C45.0203 43.2139 45.2623 43.1555 45.4766 43.0375C45.6578 42.9311 45.8512 42.7523 46.0542 42.7523C46.2572 42.7523 46.4408 42.9118 46.6197 43.0254C46.838 43.1499 47.0861 43.2126 47.3374 43.2066C47.6274 43.2066 47.8691 43.1462 48.0624 43.0254C48.2558 42.9045 48.3524 42.7595 48.3524 42.5855C48.3524 42.4164 48.2558 42.269 48.0576 42.1481ZM45.4137 25.461C42.4557 22.9429 33.6688 15.7702 29.5 15.7702C25.3288 15.7702 16.5467 22.938 13.5911 25.461C13.5717 24.8641 13.5573 24.5016 13.5573 23.9724C13.5573 23.9724 13.4848 23.0951 14.2629 22.2203C20.6768 16.4445 27.4023 13.617 27.6102 13.53C29.616 12.689 29.5024 12.846 29.5 9.46512C29.5 9.46512 29.5894 9.46029 29.645 9.46512C32.4725 9.72129 40.0633 17.0438 44.5558 21.9955C44.5655 22.0052 45.4452 23.0154 45.4452 24.0811C45.4452 24.579 45.4307 25.072 45.4137 25.461ZM45.2929 21.3285C44.8144 20.8017 33.5721 8.46704 29.5 8.46704C25.4303 8.46704 14.1856 20.8017 13.7095 21.3285C13.6612 21.3793 12.564 22.6263 12.564 24.0811C12.564 25.2121 12.6389 26.3528 12.6389 26.3625C12.6438 26.4156 12.6679 26.8941 12.9386 27.027C12.9815 27.0478 13.0286 27.0586 13.0763 27.0585C13.1987 27.0502 13.3154 27.0037 13.4098 26.9255C13.5307 26.8192 24.9857 16.7635 29.5 16.7635C34.0143 16.7635 45.4693 26.8192 45.5853 26.9207C45.6808 27.0011 45.7992 27.0493 45.9237 27.0585C45.9722 27.059 46.0202 27.0482 46.0638 27.027C46.3297 26.8965 46.3587 26.4156 46.3611 26.36C46.3611 26.3504 46.436 25.2121 46.436 24.0811C46.436 22.6263 45.3388 21.3817 45.2929 21.3285Z" fill="black"/>
</g>
</svg>
