<svg width="59" height="58" viewBox="0 0 59 58" fill="none" xmlns="http://www.w3.org/2000/svg">
<g id="Group 34" opacity="0.3">
<path id="Vector" d="M29.4999 18.2046C13.419 18.2046 0.5 23.0379 0.5 29.0909C0.5 35.0986 13.5093 39.9771 29.4999 39.9771C45.4906 39.9771 58.4999 35.0986 58.4999 29.0909C58.5451 23.1283 45.4906 18.2046 29.4999 18.2046ZM29.4999 39.0285C14.1417 39.0285 1.71962 34.6018 1.71962 29.0909C1.71962 23.6251 14.1869 19.1532 29.4999 19.1532C44.8582 19.1532 57.2803 23.58 57.2803 29.0909C57.3254 34.6018 44.8582 39.0285 29.4999 39.0285ZM40.9283 31.3042C40.9283 31.3494 40.9283 31.3946 40.9283 31.3946C40.9283 31.4398 41.0186 31.4849 41.0638 31.5301C41.0638 31.5301 41.109 31.5753 41.0638 31.6205C40.8831 32.027 40.7024 32.2528 40.4766 32.569C40.2507 32.8852 40.0248 33.1111 39.7538 33.337C39.3473 33.6983 38.7149 34.0597 38.218 33.8338C37.9921 33.6983 37.9018 33.4273 37.9018 33.1563C37.9018 32.4787 38.218 31.756 38.8052 31.0332C39.4828 30.175 40.2959 29.7233 40.7928 29.9943C41.3348 30.2201 41.1993 30.8525 40.9283 31.3042ZM26.5638 26.7871C26.5186 26.5161 26.609 26.1999 26.88 25.974C27.0155 25.8385 27.1962 25.8385 27.3317 25.9289C27.4672 26.0192 27.3769 26.2902 27.2866 26.5161C27.151 26.742 26.9252 26.9226 26.6993 26.9226C26.609 26.8775 26.5638 26.8775 26.5638 26.7871ZM29.4999 20.0114C14.6838 20.0114 2.66822 24.122 2.66822 29.136C2.66822 34.1049 14.6838 38.2155 29.4999 38.2155C44.3161 38.2155 56.3317 34.1049 56.3317 29.0909C56.3317 24.0769 44.3161 20.0114 29.4999 20.0114ZM15.7227 35.0986C14.1417 35.0986 12.7414 34.15 12.5607 32.4335C12.4704 31.4849 12.7414 30.6719 13.2835 29.9491C13.7352 29.3167 14.5483 28.8198 15.2258 28.6843C15.4517 28.6391 15.7227 28.6843 15.8582 28.8198C16.0389 29.0457 15.9937 29.2715 15.8131 29.4071C15.3162 29.6781 14.6838 30.1298 14.3676 30.717C14.0965 31.2139 14.0514 31.8463 14.4579 32.3884C15.0903 33.337 16.852 33.3821 18.5233 31.8463C18.9299 31.4849 19.2912 31.1236 19.6526 30.6719C20.3754 29.8588 20.6012 29.5426 21.595 28.1874V28.1423C21.595 28.1423 21.595 28.1423 21.5498 28.0971C20.9174 28.0971 20.3302 28.3229 19.7881 28.7295C19.6526 28.865 19.4268 28.8198 19.2912 28.6843C19.2009 28.5036 19.2461 28.2778 19.4268 28.1874C20.285 27.555 21.2788 27.4647 22.2274 27.284C22.2274 27.284 22.3177 27.284 22.3629 27.1937C22.7694 26.6968 23.0856 26.1999 23.4922 25.703C23.9439 25.161 24.4859 24.7092 24.8925 24.3027C25.4797 23.8058 25.8862 23.6251 26.2476 23.3993C26.338 23.3541 26.2476 23.2638 26.2024 23.2638C24.0342 22.8572 21.7757 22.3152 19.6526 23.1283C18.162 23.6703 17.5296 24.8448 17.8458 25.6578C18.0716 26.1999 18.7944 26.2902 19.5171 25.974C20.1043 25.703 20.6012 25.2513 21.0077 24.6641C21.2336 24.3479 21.6401 24.5737 21.4143 25.1158C20.7819 26.6064 19.5623 27.7809 18.1168 27.8261C16.852 27.8712 16.0841 26.9678 16.0841 25.8385C16.0841 23.6251 18.5685 22.1345 21.1884 21.9086C24.3504 21.6376 27.3317 22.4959 30.4485 22.8572C32.8426 23.1283 35.1464 23.1734 37.5404 22.5862C37.8115 22.541 38.0373 22.7217 37.9921 22.9927C37.947 23.3993 37.6308 23.8058 36.8629 24.2575C35.9594 24.7544 35.0108 24.8899 34.0171 24.8899C31.623 24.8899 29.4096 23.9865 27.1059 23.4896C27.1059 23.58 27.151 23.7155 27.0607 23.7607C25.7959 24.7092 24.6214 25.6578 23.8535 26.9678C23.8084 27.013 23.8535 27.013 23.8987 27.013C24.5763 26.9678 25.1635 26.9678 25.7959 26.9226C25.8862 26.9226 25.8862 26.8775 25.8862 26.7871C25.8411 26.3354 25.9766 25.7934 26.3831 25.432C26.7897 25.0706 27.3317 25.0254 27.6479 25.2965C28.0545 25.6127 28.0093 26.1547 27.7834 26.5613C27.5576 26.9678 27.1962 27.1937 26.88 27.3292C26.88 27.3292 26.7897 27.3292 26.8348 27.4195C26.8348 27.5099 27.3317 27.7809 27.3769 27.8712C27.4221 27.9164 27.3769 28.0519 27.3317 28.0971C27.2866 28.1423 27.1962 28.1874 27.1059 28.1874C27.0155 28.1874 26.9704 28.1423 26.88 28.0971C26.6542 27.9616 26.3831 27.7809 26.2476 27.555C26.2024 27.4647 26.1573 27.4647 26.0218 27.4647C25.3442 27.5099 24.3052 27.6002 23.5825 27.6906C23.4018 27.6906 23.4018 27.7357 23.3567 27.8261C22.2274 29.6781 21.0077 31.7108 19.6526 33.0659C18.2071 34.6921 16.9875 35.0986 15.7227 35.0986ZM46.5747 25.974C46.3488 26.3354 42.1027 32.8401 41.8317 33.4725C41.7414 33.6983 41.7414 33.8338 41.8317 33.9694C42.0576 34.2856 42.5544 34.1049 42.8706 33.879C43.7741 33.2466 44.4065 32.4787 45.1292 31.8011C45.1744 31.756 45.2195 31.756 45.2647 31.8011C45.3551 31.8915 45.5357 32.027 45.6261 32.1173C45.6713 32.1625 45.6713 32.2077 45.6261 32.2528C44.9485 33.1111 44.1806 33.879 43.4579 34.4662C42.3286 35.3245 41.1993 35.5503 40.6121 35.0083C40.3862 34.7824 40.2959 34.5114 40.2959 34.2404C40.2959 34.1049 40.2055 34.1049 40.1604 34.15C39.4828 34.8276 38.3083 35.5503 37.2694 35.0083C36.366 34.5566 36.1853 33.5176 36.366 32.6142C36.366 32.6142 36.366 32.4787 36.2305 32.5239C36.0498 32.6594 35.8239 32.7949 35.5077 32.9304C35.1464 33.0659 34.9657 33.1111 34.6043 33.1111C34.1526 33.1111 33.7912 32.9304 33.5202 32.4787C33.3847 32.2528 33.2943 31.8915 33.2943 31.6205C33.2943 31.5753 33.2492 31.5301 33.204 31.6205C32.4812 32.7046 31.8037 33.7887 31.0809 34.9179C31.0358 34.9631 30.9906 35.0083 30.9454 35.0083C30.4937 35.0083 29.9968 35.0083 29.5451 35.0083C29.4548 35.0083 29.4096 34.9631 29.4548 34.8728C29.7258 34.3759 31.0809 32.3884 32.0295 30.6719C32.3006 30.2201 32.2554 29.9491 32.0747 29.8588C31.894 29.7233 31.4875 29.9039 31.1261 30.175C30.2227 30.8525 29.4548 31.9366 29.0482 32.4335C28.8224 32.7046 28.5965 33.1563 28.0093 33.7887C27.0607 34.8276 25.7959 35.4148 24.6214 35.0083C23.9439 34.7824 23.4922 34.2404 23.3115 33.608C23.2663 33.4725 23.2211 33.4273 23.1308 33.5176C22.9501 33.7435 22.5436 34.1049 22.1822 34.3307C22.137 34.3759 22.0467 34.4211 21.9563 34.3759C21.866 34.3307 21.6401 34.0145 21.595 33.879C21.5498 33.7887 21.595 33.7435 21.6401 33.6983C22.137 33.2918 22.3629 33.0208 22.5887 32.7949C22.7243 32.6142 22.8598 32.3884 22.9953 32.027C23.2663 31.3043 23.9439 29.9491 25.2538 29.2264C25.7507 28.9553 26.2476 28.7747 26.8348 28.6843C27.0607 28.6391 27.2866 28.6843 27.3317 28.865C27.3769 28.9553 27.4221 29.136 27.4672 29.2264C27.5124 29.3167 27.4672 29.3619 27.3769 29.4071C26.609 29.7233 25.8411 30.175 25.299 30.8977C24.6666 31.7108 24.5311 32.7046 24.9376 33.2466C25.2538 33.6532 25.7056 33.7435 26.2024 33.5628C26.9252 33.337 27.5124 32.7046 27.8286 31.9366C28.1448 31.1236 28.2351 30.2201 27.9641 29.3619C27.9189 29.2264 27.9641 29.0909 28.0545 29.0457C28.2351 28.9102 28.5062 28.7747 28.5513 28.7295C28.732 28.6391 28.9127 28.6843 29.0031 28.8198C29.2741 29.1812 29.4096 29.7233 29.4096 30.3105C29.4096 30.446 29.4548 30.446 29.5451 30.3557C29.9968 29.8588 30.4485 29.3619 30.9003 28.9553C31.352 28.594 31.9392 28.3229 32.4361 28.3229C33.1136 28.3229 33.475 28.8198 33.4298 29.6329C33.4298 29.7233 33.5202 29.7233 33.5654 29.6781C33.7912 29.3619 33.9267 29.2264 34.1526 29.0457C34.6495 28.6391 35.1012 28.4585 35.6432 28.5036C36.2756 28.5488 36.7725 29.136 36.6822 29.7684C36.637 30.175 36.366 30.5815 36.0046 30.7622C35.6884 30.9429 35.2819 30.8977 35.0108 30.6719C34.785 30.4912 34.7398 30.175 34.785 29.9039C34.785 29.8588 34.7398 29.7684 34.6495 29.8588C34.0171 30.4912 33.9719 31.3042 34.3784 31.7108C34.8302 32.1173 35.4625 31.8463 35.9594 31.5301C36.8629 30.9429 37.5404 30.175 38.3083 29.5426C38.8504 29.136 39.4376 28.7747 40.1152 28.6843C40.4766 28.6391 40.8379 28.6391 41.1993 28.8198C41.6962 29.0005 41.9672 29.4071 42.0124 29.7684C42.0124 29.8588 42.1027 29.9039 42.1479 29.8136C42.5093 29.2264 44.5871 26.1547 44.7678 25.8385C44.813 25.7482 44.8582 25.703 44.9937 25.703C45.4454 25.703 46.0326 25.703 46.4392 25.703C46.5747 25.8837 46.5747 25.9289 46.5747 25.974Z" fill="black"/>
</g>
</svg>
