<svg width="59" height="58" viewBox="0 0 59 58" fill="none" xmlns="http://www.w3.org/2000/svg">
<g id="Group 35" opacity="0.3">
<path id="Vector" d="M1.08004 34.6885H4.54311C4.83311 34.6885 5.12069 34.4468 5.12069 34.1012V23.7362C5.12037 23.6591 5.10487 23.5828 5.07506 23.5117C5.04526 23.4405 5.00174 23.376 4.94698 23.3217C4.89223 23.2674 4.82731 23.2244 4.75594 23.1951C4.68457 23.1659 4.60814 23.151 4.53103 23.1514H1.08004C1.00361 23.1504 0.92775 23.1647 0.856941 23.1935C0.786133 23.2223 0.721807 23.265 0.667754 23.3191C0.613701 23.3731 0.571015 23.4375 0.542212 23.5083C0.51341 23.5791 0.499073 23.6549 0.500046 23.7314V34.1085C0.500046 34.5169 0.857711 34.6861 1.08004 34.6861M7.28118 23.9948L9.722 33.0258C9.87667 33.63 10.3117 34.0771 10.6669 34.3066C11.0777 34.5725 11.4837 34.6836 12.1411 34.6836H14.8453C15.9908 34.6836 16.8584 33.9731 17.1725 32.7648L19.3717 24.0165C19.394 23.9313 19.4053 23.8436 19.4055 23.7555C19.4095 23.6772 19.3974 23.5989 19.37 23.5254C19.3425 23.4519 19.3003 23.3848 19.246 23.3282C19.1917 23.2716 19.1264 23.2267 19.0541 23.1963C18.9817 23.1659 18.904 23.1506 18.8255 23.1514H16.827C16.6967 23.1502 16.5698 23.193 16.4667 23.2728C16.3637 23.3526 16.2905 23.4647 16.259 23.5912L14.5239 31.1674C14.4707 31.4284 14.3402 31.484 14.2001 31.484C14.1338 31.4819 14.0703 31.4565 14.0208 31.4123C13.9714 31.3681 13.939 31.308 13.9294 31.2423L12.0879 23.7265C12.0396 23.3471 11.7931 23.149 11.5031 23.149H7.82251C7.36818 23.149 7.20868 23.5598 7.23526 23.8087C7.23768 23.8619 7.26668 23.9126 7.28118 23.9948ZM25.9571 27.5956L25.9522 26.5975C25.9522 26.235 26.2326 25.9934 26.5322 25.9934H30.6406C30.7935 25.9921 30.9398 25.9304 31.0476 25.8218C31.1553 25.7131 31.2157 25.5663 31.2157 25.4134L31.2181 23.7338C31.2178 23.6567 31.2023 23.5804 31.1725 23.5092C31.1427 23.4381 31.0992 23.3735 31.0444 23.3192C30.9897 23.2649 30.9248 23.2219 30.8534 23.1927C30.782 23.1635 30.7056 23.1486 30.6285 23.149H23.6274C22.4964 23.149 21.3364 24.0286 21.3364 25.6236V32.3661C21.3364 33.8209 22.5641 34.6836 23.6202 34.6836H30.701C31.0006 34.6836 31.3027 34.4589 31.2882 34.0432V32.3757C31.2882 32.2219 31.2271 32.0744 31.1183 31.9656C31.0096 31.8568 30.8621 31.7957 30.7082 31.7957H26.5999C26.2157 31.7957 25.9571 31.571 25.9571 31.2085V30.2491H29.5676C29.6454 30.2478 29.7222 30.2311 29.7935 30.1998C29.8648 30.1685 29.9291 30.1232 29.9827 30.0667C30.0363 30.0102 30.078 29.9436 30.1055 29.8708C30.133 29.7979 30.1456 29.7203 30.1427 29.6425V28.1683C30.1421 28.0918 30.1263 28.0161 30.0963 27.9456C30.0662 27.8752 30.0226 27.8114 29.9677 27.7579C29.9129 27.7044 29.848 27.6623 29.7769 27.6341C29.7057 27.6058 29.6296 27.5919 29.5531 27.5932H25.9571V27.5956ZM39.2753 25.9909C40.308 25.9352 41.3431 25.9352 42.3758 25.9909C42.4518 25.9913 42.527 25.9765 42.5972 25.9476C42.6675 25.9187 42.7313 25.8762 42.785 25.8225C42.8387 25.7688 42.8812 25.705 42.9101 25.6348C42.939 25.5645 42.9537 25.4893 42.9534 25.4134V25.4013L42.9655 23.5598C42.9655 23.4158 42.9117 23.277 42.8147 23.1706C42.7177 23.0642 42.5845 22.9979 42.4411 22.9846C41.7226 22.9398 41.0028 22.9205 40.283 22.9266C39.268 22.9266 38.2699 22.9798 37.2936 23.0934L37.354 23.0885C35.2298 23.2577 33.4995 24.8285 33.1104 26.8827C32.9981 27.5374 32.9383 28.2001 32.9315 28.8643C32.9315 29.5168 32.9799 30.1379 33.0717 30.7397C33.2257 31.7272 33.6907 32.6399 34.3992 33.3449C35.1076 34.0499 36.0226 34.5104 37.0109 34.6595L36.948 34.6498C38.7917 34.9114 40.6598 34.9544 42.5136 34.7779C42.6557 34.7642 42.7877 34.6983 42.8841 34.5929C42.9805 34.4876 43.0345 34.3503 43.0356 34.2076L43.0332 34.2486L43.038 32.3975C43.038 32.2443 42.9771 32.0974 42.8688 31.9891C42.7605 31.8808 42.6136 31.8199 42.4604 31.8199H42.4435C41.8659 31.8489 41.2859 31.8489 40.6987 31.8368C40.207 31.8315 39.7154 31.8146 39.2245 31.7861C38.8609 31.7412 38.5229 31.5751 38.2651 31.3147C38.0073 31.0543 37.8447 30.7147 37.8035 30.3506C37.7037 29.443 37.6859 28.5282 37.7504 27.6173C37.7524 27.2039 37.9107 26.8064 38.1935 26.5048C38.4764 26.2032 38.8628 26.0196 39.2753 25.9909ZM58.4998 29.0045C58.507 27.9557 58.3548 26.9987 58.0696 26.1166C57.7876 25.289 57.2771 24.5582 56.5971 24.0086C55.9171 23.4591 55.0954 23.1132 54.2271 23.0112C53.3568 22.9097 52.4812 22.8597 51.605 22.8614C50.6239 22.8614 49.7684 22.8855 48.8114 23.0064C47.909 23.1289 47.0622 23.5127 46.3752 24.1104C45.6882 24.7081 45.191 25.4936 44.9447 26.3704C44.4557 28.0894 44.4801 29.9139 45.0148 31.6193C45.2872 32.4599 45.7957 33.2045 46.4796 33.7641C47.1635 34.3237 47.9939 34.6748 48.8718 34.7755C49.6983 34.8649 50.5248 34.906 51.3779 34.906C52.4484 34.906 53.3233 34.906 54.3552 34.7658C56.4093 34.3961 57.8642 32.9485 58.2533 31.1142C58.4103 30.4327 58.4949 29.7368 58.4998 29.0045ZM53.8839 28.9562C53.8839 29.4927 53.8598 30.005 53.7945 30.527C53.7346 30.8899 53.5542 31.222 53.2823 31.4697C53.0105 31.7174 52.6631 31.8664 52.2962 31.8924C51.8607 31.9117 51.4247 31.9174 50.9888 31.9093C50.599 31.9077 50.2228 31.7663 49.9283 31.5109C49.6339 31.2555 49.4408 30.903 49.3841 30.5173C49.2366 29.446 49.2252 28.3604 49.3503 27.2863C49.3923 26.9057 49.5665 26.5519 49.8425 26.2865C50.1185 26.0211 50.4788 25.8609 50.8607 25.8339C51.2891 25.8174 51.7178 25.8142 52.1464 25.8242C52.9994 25.8242 53.7003 26.4718 53.7776 27.3032C53.8501 27.8421 53.8839 28.3955 53.8839 28.9562Z" fill="black"/>
</g>
</svg>
