<svg width="59" height="58" viewBox="0 0 59 58" fill="none" xmlns="http://www.w3.org/2000/svg">
<g id="Group 33" opacity="0.3">
<g id="Group 29">
<path id="Vector" fill-rule="evenodd" clip-rule="evenodd" d="M38.5559 36.1554V27.394H42.9025L49.0038 31.3251V27.394H53.3008V36.1585H48.7372L43.2435 32.3513V36.1585H38.5559V36.1554ZM21.7865 36.1554L27.6212 27.3909H32.4546L38.1684 36.1554H33.1893L32.3833 35.278H27.4755L26.7687 36.1554H21.7865ZM28.9854 32.959H30.8641L29.8875 31.105L28.9854 32.959ZM6.48044 36.1554V27.394H10.9975L13.9025 30.7144L17.0028 27.394H21.2998V36.1585H16.8323V32.9838L14.0017 35.6934L10.9758 32.9838V36.1585H6.48044V36.1554Z" fill="black"/>
<path id="Vector_2" fill-rule="evenodd" clip-rule="evenodd" d="M21.0518 41.4041H38.5311C39.0923 41.4041 39.5573 41.8908 39.5573 42.5015V52.8999C39.5573 53.5106 39.0923 53.9974 38.5311 53.9974H21.0518C20.4906 53.9974 20.0256 53.5106 20.0256 52.8999V42.5015C20.0287 41.8939 20.4906 41.4041 21.0518 41.4041ZM21.2254 42.6008V52.8038H38.3637V42.6008H21.2254Z" fill="black"/>
<path id="Vector_3" fill-rule="evenodd" clip-rule="evenodd" d="M21.7618 52.537L22.3973 51.6597H22.8624L24.5706 49.6817H25.231L27.1345 46.8511L32.188 46.1443L32.7491 49.5391L28.356 48.9035L27.5252 49.7344H27.4756L25.3023 51.7124L25.8634 52.0782V52.5184H23.7645L23.935 51.3961L22.7631 52.5432H21.7618V52.537ZM24.738 49.4616H25.1287L26.4711 47.4588L24.738 49.4616ZM32.3802 46.042L32.9662 49.5577L35.0402 49.8739L36.0416 49.2631L36.5532 46.1629L35.1612 42.8177L35.1116 42.7929L32.3802 46.042ZM35.4061 42.8704L35.5518 42.92L35.992 42.675V43.3354L36.6276 43.5803L36.6524 43.8718C36.6524 43.9462 36.8477 44.0423 36.8725 43.9679L36.9469 43.6516L37.9235 43.9927L37.8274 44.8483L37.1918 44.7522C36.8012 44.7026 36.7268 45.3134 37.0926 45.3382L37.6786 45.3878L37.5825 46.1195L36.7516 46.0947L35.4061 42.8704ZM34.8945 50.0475L34.3086 51.6597L35.0402 52.1712V52.5618H33.4033L33.0871 50.6087H33.1367L33.1119 50.4878L32.991 49.7809L34.8945 50.0475ZM32.6003 49.7282L28.4274 49.1174L27.8166 49.7282H32.6003Z" fill="black"/>
<path id="Vector_4" fill-rule="evenodd" clip-rule="evenodd" d="M29.5 7.30122C43.5598 7.30122 55.0339 18.7753 55.0339 32.8103C55.0339 33.8365 54.9595 34.8596 54.8386 35.861H58.3543C58.4504 34.8596 58.5 33.8334 58.5 32.8103C58.5 16.8439 45.4633 3.8103 29.5 3.8103C13.5336 3.8103 0.5 16.847 0.5 32.8103C0.5 33.8365 0.549605 34.8596 0.645713 35.861H4.16143C4.04052 34.8596 3.96611 33.8334 3.96611 32.8103C3.96611 18.7753 15.4371 7.30122 29.5 7.30122Z" fill="black"/>
</g>
</g>
</svg>
