<svg width="59" height="58" viewBox="0 0 59 58" fill="none" xmlns="http://www.w3.org/2000/svg">
<g id="Group 39" opacity="0.3">
<path id="Vector" d="M50.2253 36.0613L50.2012 36.129C47.1876 44.9329 38.8791 50.8368 29.5121 50.8368C20.1451 50.8368 11.8221 44.9208 8.82058 36.1193L8.79642 36.0492H2.21583V36.8443L4.95392 37.1657C6.64558 37.3591 7.00083 38.1082 7.46242 39.0507L7.57842 39.2827C11.5369 47.729 20.1548 53.1834 29.5218 53.1834C38.8912 53.1834 47.509 47.729 51.4675 39.2948L51.5835 39.0652C52.0427 38.1227 52.4003 37.3736 54.092 37.1778L56.8325 36.854V36.0613H50.2253ZM8.82058 21.6991C11.8342 12.8952 20.1451 6.98157 29.5121 6.98157C38.8791 6.98157 47.1997 12.8952 50.2036 21.6991L50.2278 21.7667H56.8204V20.9741L54.0799 20.6527C52.3883 20.4569 52.033 19.7102 51.5714 18.7652L51.4578 18.5332C47.4993 10.1112 38.8767 4.65674 29.5121 4.65674C20.133 4.65674 11.5248 10.1112 7.56633 18.5574L7.45033 18.787C6.99117 19.7295 6.6335 20.4787 4.94183 20.6744L2.20375 20.9958V21.7909H8.78675L8.82058 21.6991ZM42.3204 25.5319L38.1082 32.2865H39.9255L40.6747 31.0782H45.5877L46.3369 32.2865H48.1422L43.9299 25.5319H42.3204ZM44.8168 29.7997H41.4456L43.1372 27.0834L44.8168 29.7997ZM51.6077 27.2236L56.6126 32.2865H58.5V25.5319H57.0162V30.5707L52.033 25.5319H50.1118V32.2865H51.6077V27.2236ZM0.5 32.2865H1.99592V27.2236L7.01292 32.2865H8.90033V25.5319H7.40442V30.5707L2.42125 25.5319H0.5V32.2865ZM12.2039 25.5319H13.6998V32.2865H12.2015L12.2039 25.5319ZM23.0451 30.8582C22.9968 30.8703 22.8131 30.8703 22.7454 30.8703H16.7956V32.2527H22.8373C22.8832 32.2527 23.2408 32.2527 23.3085 32.2406C24.541 32.1246 25.1041 31.0999 25.1041 30.2033C25.1041 29.2826 24.5168 28.2942 23.4003 28.1902C23.1828 28.1661 22.9992 28.1661 22.917 28.1661H18.9706C18.824 28.1708 18.6773 28.1595 18.5332 28.1322C18.2214 28.0501 18.1078 27.7746 18.1078 27.545C18.1078 27.3372 18.2214 27.0617 18.5428 26.9698C18.6794 26.9409 18.8191 26.9296 18.9585 26.936H24.6546V25.5778H18.8667C18.625 25.5778 18.4413 25.5875 18.2915 25.6117C17.8201 25.6697 17.387 25.901 17.0766 26.2605C16.7662 26.6201 16.6006 27.0822 16.6119 27.5571C16.6119 28.386 17.1291 29.3527 18.2673 29.5146C18.4752 29.5363 18.7628 29.5363 18.8908 29.5363H22.7333C22.8034 29.5363 22.975 29.5363 23.0088 29.5484C23.4463 29.604 23.5961 29.9278 23.5961 30.2154C23.5998 30.3717 23.5456 30.5238 23.4438 30.6425C23.3421 30.7611 23.2001 30.838 23.0451 30.8582ZM34.2995 30.8582C34.2512 30.8703 34.0675 30.8703 33.9878 30.8703H28.05V32.2527H34.0917C34.1376 32.2527 34.4953 32.2527 34.5629 32.2406C35.7954 32.1246 36.3585 31.0999 36.3585 30.2033C36.3585 29.2826 35.7713 28.2942 34.6548 28.1902C34.4373 28.1661 34.2536 28.1661 34.1714 28.1661H30.225C30.0784 28.1708 29.9317 28.1595 29.7876 28.1322C29.4758 28.0501 29.3623 27.7746 29.3623 27.545C29.3623 27.3372 29.4758 27.0617 29.7973 26.9698C29.9338 26.9409 30.0735 26.9296 30.2129 26.936H35.909V25.5778H30.1211C29.8794 25.5778 29.6958 25.5875 29.5459 25.6117C29.0745 25.6697 28.6414 25.901 28.331 26.2605C28.0206 26.6201 27.855 27.0822 27.8663 27.5571C27.8663 28.386 28.3835 29.3527 29.5242 29.5146C29.7296 29.5363 30.0172 29.5363 30.1453 29.5363H33.9878C34.0578 29.5363 34.2294 29.5363 34.2633 29.5484C34.7007 29.604 34.8505 29.9278 34.8505 30.2154C34.8516 30.371 34.7964 30.5217 34.6952 30.6398C34.5939 30.758 34.4534 30.8355 34.2995 30.8582Z" fill="black"/>
</g>
</svg>
