<svg width="59" height="58" viewBox="0 0 59 58" fill="none" xmlns="http://www.w3.org/2000/svg">
<g id="Group 36" opacity="0.3">
<g id="Group">
<path id="Vector" d="M3.2359 2.28018C10.9886 0.940425 18.7748 0.178052 26.6228 0.0266986C36.3487 -0.158289 46.0017 0.620901 55.593 2.27458C55.6098 2.38109 55.6322 2.46517 55.6322 2.54926C55.7499 5.87903 55.8452 9.2032 55.7892 12.533C55.7331 15.9637 55.5201 19.3831 55.0324 22.7858C54.399 27.1975 53.3395 31.4914 51.5849 35.6004C48.1206 43.7006 42.6046 50.0742 35.2556 54.8839C33.4898 56.0387 31.6399 57.0365 29.7284 57.9222C29.5153 58.0231 29.3472 58.0287 29.1285 57.9222C17.4351 52.3277 9.49184 43.4595 5.6127 31.0317C4.75504 28.285 4.19447 25.4709 3.79086 22.6176C3.18544 18.3405 3.00606 14.0353 3.0453 9.71893C3.06773 7.37015 3.15181 5.02697 3.20226 2.67819C3.20787 2.56047 3.21908 2.43154 3.2359 2.28018ZM4.30658 3.36769C4.30658 3.58631 4.31219 3.73766 4.30658 3.89462C4.27855 5.04939 4.24492 6.19856 4.21128 7.35333C4.09917 11.2549 4.13841 15.1508 4.46354 19.0412C4.68777 21.6646 5.04653 24.2713 5.59589 26.8499C6.44235 30.8355 7.72605 34.6698 9.64319 38.2743C14.0661 46.5707 20.6135 52.6304 29.0669 56.6777C29.3304 56.8011 29.5378 56.7786 29.79 56.6609C31.8697 55.6855 33.8597 54.5588 35.7489 53.2583C41.9992 48.9475 46.8369 43.4259 50.0546 36.5253C52.067 32.2089 53.2554 27.6571 53.9281 22.9539C54.3934 19.697 54.6344 16.4177 54.6512 13.1272C54.668 10.4533 54.6064 7.77936 54.5727 5.09984C54.5671 4.53367 54.5279 3.96749 54.5055 3.36769C46.3828 1.95505 38.221 1.23192 29.9974 1.19829C21.3871 1.15905 12.8384 1.88218 4.30658 3.36769Z" fill="black"/>
<path id="Vector_2" d="M4.30659 3.36777C12.8384 1.88787 21.3871 1.15913 29.9974 1.19276C38.221 1.2264 46.3829 1.94953 54.5055 3.36216C54.5279 3.96197 54.5672 4.52815 54.5728 5.09432C54.6064 7.76823 54.6624 10.4421 54.6512 13.1217C54.6344 16.4122 54.3934 19.6915 53.9281 22.9484C53.2554 27.646 52.067 32.2034 50.0546 36.5198C46.8425 43.426 41.9992 48.942 35.7489 53.2528C33.8598 54.5589 31.8697 55.68 29.79 56.6554C29.5434 56.7731 29.3304 56.7956 29.0669 56.6722C20.6135 52.6249 14.0605 46.5708 9.6432 38.2688C7.72605 34.6643 6.44235 30.83 5.59589 26.8444C5.04654 24.2658 4.68777 21.6647 4.46355 19.0357C4.13281 15.1453 4.09918 11.2494 4.21129 7.34781C4.24492 6.19303 4.27295 5.04387 4.30659 3.8891C4.31219 3.73774 4.30659 3.58079 4.30659 3.36777ZM53.5693 4.19741C37.453 1.50668 21.3815 1.50668 5.28758 4.1918C5.27637 4.36558 5.26516 4.50572 5.25955 4.64587C5.22592 6.05289 5.18107 7.45992 5.16426 8.87255C5.11941 12.4153 5.15305 15.9581 5.48939 19.4897C5.74164 22.1244 6.12283 24.7422 6.71143 27.3209C7.49622 30.7571 8.61175 34.0813 10.2206 37.2261C14.4305 45.4553 20.7761 51.5038 29.0501 55.5679C29.3248 55.7024 29.5322 55.6912 29.8012 55.5623C34.0279 53.5218 37.8118 50.8479 41.1415 47.535C46.2035 42.4954 49.6286 36.4974 51.5457 29.6248C52.9639 24.5517 53.5301 19.3552 53.659 14.1083C53.7095 12.0902 53.6815 10.0666 53.6702 8.04852C53.6534 6.78724 53.603 5.52035 53.5693 4.19741Z" fill="white"/>
<path id="Vector_3" d="M53.5694 4.19721C53.603 5.52016 53.6534 6.78704 53.6646 8.04832C53.6815 10.0664 53.7039 12.09 53.6534 14.1081C53.5245 19.355 52.9527 24.5515 51.5401 29.6246C49.6229 36.4972 46.1979 42.4953 41.1359 47.5348C37.8118 50.8477 34.0279 53.5216 29.7956 55.5621C29.5266 55.691 29.3192 55.7022 29.0445 55.5677C20.7705 51.5036 14.4249 45.4607 10.215 37.2259C8.60616 34.0811 7.49063 30.7569 6.70583 27.3207C6.11724 24.7364 5.73605 22.1242 5.4838 19.4895C5.14746 15.9579 5.10821 12.4151 5.15867 8.87236C5.17548 7.46533 5.22033 6.0583 5.25396 4.64567C5.25957 4.50553 5.27078 4.36538 5.28199 4.19161C21.3759 1.50649 37.4474 1.50649 53.5694 4.19721ZM32.0659 47.9552C32.3743 47.4114 32.6433 46.9462 32.8956 46.4697C33.1422 46.01 33.4562 45.6176 33.8598 45.2869C36.1525 43.3978 38.4396 41.4974 40.7435 39.6139C41.0687 39.3505 41.2817 39.059 41.3826 38.6497C41.7974 36.9456 42.0665 35.2191 42.1786 33.4701C42.2683 32.0463 42.2403 30.628 42.0889 29.2098C42.0553 28.8847 41.9432 28.6044 41.7638 28.3465C40.5586 26.5975 39.1852 24.9831 37.7277 23.4415C37.5595 23.2621 37.3577 23.1444 37.0718 23.0996C37.0886 23.2341 37.0942 23.3462 37.1167 23.4527C37.3857 24.7028 37.6604 25.9529 37.9183 27.2085C37.9799 27.5169 38.1201 27.7579 38.3443 27.9765C39.0674 28.6885 39.7345 29.4396 40.3175 30.2749C40.5866 30.6617 40.7435 31.0821 40.766 31.5474C40.8837 33.7504 40.8669 35.9534 40.6258 38.1508C40.5754 38.5937 40.3904 38.902 40.0541 39.1879C37.9743 40.9593 35.9114 42.7531 33.8542 44.5469C33.3272 45.0066 32.8227 45.4887 32.52 46.1389C32.5088 46.1614 32.4752 46.167 32.4415 46.1838C32.0716 45.2084 31.8641 44.233 32.1781 43.1847C32.5256 42.0132 32.8339 40.8304 33.1535 39.6532C33.1983 39.4906 33.2319 39.328 33.2712 39.1711C33.2431 39.1599 33.2151 39.1487 33.1871 39.1374C33.1254 39.2552 33.0582 39.3729 33.0077 39.4962C32.5985 40.438 32.1837 41.3685 31.7913 42.3159C31.511 42.9998 31.2643 43.6949 30.9953 44.3844C30.8551 44.7487 30.8551 45.0907 31.0121 45.4551C31.3092 46.1446 31.5783 46.8509 31.8641 47.546C31.9146 47.6581 31.9706 47.7646 32.0659 47.9552ZM25.7035 24.3497C25.653 24.3553 25.6026 24.3553 25.5521 24.3609C25.569 24.6972 25.5802 25.0279 25.6138 25.3643C25.6587 25.8183 25.7147 26.2668 25.7652 26.7209C25.8044 27.0572 25.7371 27.3711 25.5521 27.657C25.3391 27.9933 25.1485 28.3409 24.9299 28.6772C23.3267 31.0989 21.5721 33.4084 19.6886 35.6227C19.4027 35.959 19.2065 36.3178 19.1561 36.7606C19.0776 37.551 18.9879 38.3414 18.8982 39.1318C18.859 39.485 18.9318 39.8101 19.128 40.1072C19.4027 40.522 19.6606 40.9481 19.9577 41.3461C21.5273 43.4762 23.237 45.4943 25.0588 47.4226C25.6306 48.0281 26.2416 48.5718 27.0208 48.8913C27.2675 48.9922 27.5029 49.1324 27.744 49.2501C27.8224 49.2893 27.9065 49.3062 27.9906 49.3286C28.0074 49.3006 28.0242 49.2725 28.0411 49.2501C27.8897 49.11 27.7608 48.9418 27.587 48.8353C26.9816 48.4765 26.4715 48.0056 26.0118 47.4787C24.274 45.5167 22.6428 43.4762 21.1405 41.3293C20.8209 40.8752 20.5407 40.3987 20.2492 39.9278C20.081 39.6532 19.9969 39.3561 20.0305 39.0309C20.0922 38.4648 20.1483 37.8986 20.2211 37.338C20.2604 37.0297 20.4229 36.7887 20.6528 36.5756C21.1629 36.0992 21.6674 35.6227 22.1551 35.1238C23.5677 33.6887 23.2538 34.21 24.1675 32.2593C24.8739 30.7569 25.5185 29.221 26.1912 27.7018C26.3033 27.4496 26.393 27.1917 26.3257 26.9171C26.1295 26.0538 25.9109 25.2017 25.7035 24.3497ZM28.5792 14.9433C28.5848 14.9826 28.5848 15.0218 28.5904 15.0666C28.8146 15.0722 29.0333 15.0947 29.2575 15.0835C30.5524 15.0386 31.8417 14.9938 33.1366 14.9321C33.6019 14.9097 34.0391 14.9769 34.4652 15.1675C35.1098 15.4646 35.7545 15.7673 36.4104 16.042C36.6682 16.1485 36.9485 16.227 37.2232 16.2606C37.7613 16.3223 38.3051 16.3167 38.8376 16.384C39.1571 16.4232 39.4935 16.4961 39.7682 16.6474C40.9061 17.2865 42.0329 17.9592 43.154 18.6262C43.4006 18.772 43.6361 18.8841 44.0285 18.8505C43.1988 18.0601 42.4309 17.3257 41.6629 16.5914C41.6124 16.5409 41.5452 16.5073 41.4835 16.4737C39.6897 15.459 37.8903 14.4556 36.0124 13.5979C35.6031 13.413 35.1827 13.3121 34.7399 13.2952C33.871 13.2616 33.0077 13.2112 32.1388 13.1775C29.706 13.0878 27.2787 13.1607 24.8514 13.3401C24.431 13.3737 24.1563 13.5363 23.9713 13.895C23.7191 14.3883 23.3435 14.7639 22.9231 15.1115C22.1159 15.7842 21.303 16.4568 20.4061 17.0118C20.2211 17.1239 20.0361 17.2472 19.9521 17.5331C20.3613 17.3033 20.72 17.1015 21.0788 16.9053C22.5923 16.0869 24.1059 15.274 25.6194 14.4556C26.0118 14.2426 26.4266 14.1193 26.8807 14.1081C27.5926 14.0912 28.2989 14.0184 29.0108 14.0128C30.8047 13.9903 32.5929 13.9791 34.3867 13.9735C34.695 13.9735 34.9809 14.0576 35.2332 14.237C32.9965 14.4444 30.7822 14.6294 28.5792 14.9433ZM13.4383 24.2319C13.4102 24.7084 13.3093 25.1232 12.9786 25.4596C12.6759 25.7623 12.4012 26.093 12.1265 26.4181C11.9303 26.648 11.9135 26.7545 12.0929 26.9843C12.4404 27.4328 12.8048 27.87 13.1748 28.3017C13.2645 28.4082 13.4214 28.4586 13.5784 28.5539C13.6961 28.0326 13.8082 27.5785 13.8979 27.1189C13.9596 26.8218 14.1109 26.6536 14.4249 26.5975C15.2489 26.4462 16.0673 26.2668 16.8914 26.1098C17.3847 26.0145 17.8836 25.9305 18.4385 25.8296C18.3096 25.6726 18.2255 25.5605 18.1302 25.4596C17.8331 25.1513 17.5192 24.8598 17.2445 24.5346C16.9082 24.1366 16.5046 23.946 15.9776 23.9629C15.6749 23.9685 15.3666 23.9124 15.0583 23.8844C15.0471 23.8564 15.0359 23.8283 15.0303 23.8003C15.1368 23.7218 15.2377 23.6321 15.3498 23.5649C15.4339 23.5144 15.5348 23.4976 15.6301 23.464C17.0651 22.9202 18.5002 22.3764 19.9352 21.8327C20.3893 21.6645 20.6976 21.345 20.9218 20.9246C20.8602 20.9246 20.8041 20.9414 20.7649 20.975C20.2604 21.4347 19.6494 21.6365 18.9935 21.7542C18.7861 21.7935 18.5787 21.8551 18.3713 21.9056C18.119 21.9672 17.878 21.9784 17.6257 21.8663C17.4968 21.8103 17.323 21.8103 17.1773 21.8327C16.8689 21.8832 16.5662 21.9728 16.2635 22.0401C16.1794 22.0569 16.0954 22.0625 15.9328 22.0793C16.1907 21.8159 16.3925 21.6309 16.6727 21.5356C16.9698 21.4347 17.2557 21.3058 17.5528 21.2049C17.7771 21.1264 17.9116 21.0143 17.9228 20.7564C17.934 20.4873 18.0125 20.2239 18.0405 19.9548C18.0629 19.753 18.1526 19.6128 18.3096 19.4951C18.6628 19.2317 19.0103 18.9626 19.3579 18.6879C19.4588 18.6094 19.5765 18.5422 19.6045 18.3404C19.0776 18.6543 18.6123 18.957 18.1246 19.2148C17.2613 19.6689 16.5662 20.2911 16.0225 21.104C15.8711 21.3338 15.6413 21.5244 15.4227 21.6926C14.3968 22.483 13.3598 23.2565 12.3339 24.0469C12.0424 24.2712 11.779 24.5402 11.5323 24.8149C11.2408 25.1401 11.3137 25.5156 11.7173 25.7847C11.9135 25.6446 12.1209 25.4932 12.3283 25.3475C12.6423 25.1232 12.9506 24.9046 13.1131 24.529C13.1692 24.4057 13.3261 24.3272 13.4383 24.2319ZM35.5191 19.2373C36.0908 19.2989 36.5673 19.383 37.0606 19.2092C37.4306 19.0747 37.8398 19.0355 38.2154 18.9177C38.6694 18.7776 39.045 18.8785 39.4094 19.17C40.2615 19.8595 41.1135 20.549 41.9768 21.2217C42.2403 21.4291 42.543 21.5973 42.8513 21.743C43.4175 22.0065 44.0005 22.2419 44.5722 22.4886C44.8861 22.6231 45.0767 22.8473 45.1384 23.1837C45.1608 23.2958 45.2001 23.4023 45.2169 23.5144C45.3851 24.6972 45.5476 25.88 45.727 27.0628C45.8391 27.7915 45.7102 28.4754 45.3738 29.1257C44.9422 29.9553 44.5162 30.7962 44.0733 31.6202C43.9724 31.8052 43.8435 32.0014 43.6753 32.1079C43.1372 32.4387 42.9017 32.8927 42.9522 33.5149C42.969 33.7448 42.9298 33.9746 42.9186 34.2044C43.0811 34.1091 43.1708 34.0026 43.2549 33.8905C44.4377 32.2985 45.4019 30.572 46.2707 28.7894C46.3436 28.638 46.3997 28.4698 46.4109 28.3017C46.6015 26.1827 46.5566 24.0694 46.1698 21.9672C46.1138 21.6701 45.9849 21.4459 45.7326 21.2721C43.8883 19.9772 41.96 18.8337 39.9195 17.8695C39.5047 17.6733 39.1123 17.6453 38.6919 17.8302C37.7389 18.2451 36.7859 18.6487 35.833 19.0579C35.7433 19.0915 35.6648 19.1476 35.5191 19.2373ZM30.188 49.6761C30.2105 49.2333 30.16 48.8185 29.9638 48.4205C29.7676 48.0281 29.605 47.6132 29.4481 47.204C28.9492 45.9203 28.4503 44.631 27.9738 43.3361C27.8673 43.0502 27.8112 42.7195 27.8393 42.4168C27.9177 41.5535 28.013 40.6902 28.1756 39.8382C28.6072 37.5622 29.0837 35.2919 29.5378 33.0216C29.6387 32.5059 29.4369 32.035 29.3304 31.5474C29.2407 31.6651 29.1846 31.7772 29.1398 31.8949C28.8763 32.5844 28.6072 33.2739 28.355 33.969C27.5758 36.1216 26.8414 38.291 26.2585 40.5052C26.0959 41.1163 26.1407 41.66 26.393 42.2374C27.4693 44.7039 28.7081 47.0863 30.0255 49.4351C30.0759 49.5192 30.1376 49.5977 30.188 49.6761ZM18.6179 19.9156C18.6291 19.9492 18.6403 19.9828 18.6515 20.0165C18.9599 20.0165 19.2682 20.0333 19.5709 20.0109C20.2604 19.9604 20.9667 20.0109 21.6394 19.8034C22.5083 19.54 23.3771 19.2765 24.2404 18.9906C24.4142 18.9346 24.6104 18.8056 24.7057 18.6543C25.171 17.8919 25.6138 17.1127 26.0567 16.3391C26.0735 16.3055 26.0735 16.2606 26.0903 16.171C25.4737 16.1485 24.8626 16.0644 24.2853 16.2943C23.3099 16.6811 22.3457 17.1015 21.3927 17.5387C21.1573 17.6453 20.9555 17.8471 20.7761 18.0376C20.4958 18.3404 20.238 18.6599 19.9969 18.9962C19.7447 19.3438 19.4419 19.596 19.0327 19.725C18.8814 19.7698 18.7524 19.8539 18.6179 19.9156ZM18.6908 26.5247C18.6852 26.5527 18.6796 26.5807 18.674 26.6143C18.7973 26.6648 18.9262 26.7209 19.0495 26.7657C19.7334 27.0124 20.4173 27.2534 21.0956 27.5056C21.6226 27.7018 21.7907 28.1335 21.5329 28.6268C21.062 29.5069 20.5126 30.3365 19.8792 31.1101C19.7559 31.2559 19.5877 31.396 19.4139 31.4577C18.8029 31.6819 18.1751 31.8669 17.5528 32.0799C17.3398 32.1528 17.1716 32.1135 17.0091 31.9678C16.8073 31.7884 16.5999 31.609 16.3981 31.4352C16.3308 31.3792 16.2467 31.3287 16.1346 31.2502C16.0897 31.794 16.0337 32.2705 16.2467 32.7582C16.4485 33.2066 16.5606 33.6999 16.6952 34.1764C16.8073 34.5744 16.8802 34.978 16.9811 35.3816C17.0539 35.6619 17.138 35.7292 17.4071 35.6675C17.8219 35.5722 18.2367 35.4713 18.6347 35.3144C18.8421 35.2303 19.0047 35.0341 19.1841 34.8827C19.0496 34.8267 18.9599 34.8267 18.8702 34.8491C18.5394 34.922 18.2087 35.0117 17.8724 35.0677C17.5753 35.1238 17.5248 35.0789 17.4631 34.7874C17.3791 34.367 17.3062 33.9466 17.2389 33.5262C17.1716 33.145 17.1941 33.1169 17.5865 32.9824C18.4441 32.6853 19.3074 32.3882 20.1707 32.1023C20.3949 32.0294 20.5911 31.9285 20.7088 31.7155C21.3423 30.6 21.9757 29.4901 22.5979 28.3745C22.654 28.2736 22.6988 28.1111 22.6596 28.0102C22.5195 27.6514 22.3457 27.3095 21.9084 27.2085C21.0115 26.9955 20.1146 26.7601 19.2177 26.5471C19.0439 26.5134 18.8646 26.5303 18.6908 26.5247ZM32.8451 24.7757C32.8227 24.6355 32.8115 24.5515 32.7947 24.473C32.6209 23.6377 32.4471 22.8025 32.2678 21.9728C32.2005 21.6533 32.1837 21.3618 32.4247 21.0927C32.5761 20.9246 32.6826 20.7228 32.8059 20.5266C33.501 19.3998 33.4954 19.7306 33.1815 18.2731C33.1703 18.217 33.1591 18.161 33.1366 18.1105C33.103 18.0489 33.0638 17.976 33.0077 17.948C32.6601 17.763 32.3238 17.5668 31.8866 17.6621C30.7206 17.9143 29.549 18.1273 28.3774 18.3628C27.8785 18.4637 27.6094 18.7832 27.5366 19.3382C27.7832 19.383 28.0355 19.4166 28.2821 19.4783C28.6409 19.5736 28.9716 19.5176 29.3136 19.3718C30.0311 19.0691 30.771 18.8168 31.4942 18.5141C31.7688 18.3964 32.0211 18.43 32.2734 18.5366C32.6994 18.7159 32.8844 19.3326 32.6153 19.7025C32.3014 20.1398 31.9763 20.5714 31.6399 20.9975C31.4942 21.1824 31.4549 21.3562 31.5278 21.586C31.8025 22.4381 32.0603 23.2958 32.3182 24.1478C32.3967 24.4057 32.5368 24.5963 32.8451 24.7757ZM19.3242 9.13022C18.0237 9.21991 16.768 9.3096 15.5068 9.39368C15.5068 9.06295 15.5068 8.78827 15.5068 8.47435C16.6447 8.38466 17.7602 8.30058 18.8926 8.21089C18.8926 8.01469 18.8926 7.85212 18.8926 7.6391C17.7546 7.72319 16.6447 7.80167 15.5124 7.88015C15.5124 7.58865 15.5124 7.33079 15.5124 7.0393C16.7961 6.944 18.0517 6.8487 19.313 6.75341C19.3242 6.63569 19.3354 6.5516 19.3354 6.46752C19.3354 6.38904 19.3242 6.30495 19.3074 6.17042C17.8107 6.28253 16.3476 6.39464 14.8845 6.50676C14.8845 7.71198 14.8845 8.85554 14.8845 10.0327C16.3812 9.92062 17.8499 9.80851 19.3186 9.69639C19.3242 9.50019 19.3242 9.34884 19.3242 9.13022ZM31.2027 8.83312C30.1544 8.83312 29.1566 8.83872 28.1644 8.82751C27.8505 8.82751 27.7328 8.69858 27.7271 8.37906C27.7159 7.93621 27.7215 7.49896 27.7271 7.05611C27.7271 6.53479 27.7944 6.46191 28.3157 6.45631C29.2519 6.4507 30.1936 6.45631 31.1298 6.46191C31.2811 6.46191 31.4325 6.46191 31.5951 6.46191C31.5951 6.24329 31.5951 6.08633 31.5951 5.90695C31.4998 5.89574 31.4325 5.88453 31.3652 5.88453C30.3394 5.87892 29.3192 5.87331 28.2933 5.87892C28.1364 5.87892 27.9794 5.90134 27.8281 5.93498C27.3964 6.02467 27.1554 6.2489 27.1329 6.68053C27.0993 7.34761 27.1049 8.02029 27.1329 8.68737C27.1498 9.08537 27.3852 9.29839 27.7776 9.36566C27.957 9.39929 28.1476 9.4105 28.327 9.41611C29.364 9.42732 30.4011 9.42732 31.4437 9.43292C31.567 9.43292 31.6904 9.41611 31.8417 9.4049C31.8585 8.70418 31.8697 8.0315 31.8361 7.35322C30.9897 7.35322 30.1993 7.35322 29.4201 7.35322C29.4201 7.54941 29.4201 7.71198 29.4201 7.91939C30.0311 7.91939 30.6085 7.91939 31.1971 7.91939C31.2027 8.23331 31.2027 8.51359 31.2027 8.83312ZM33.9831 6.52357C35.2836 6.56842 36.5449 6.61887 37.823 6.66372C37.823 6.46191 37.823 6.29935 37.823 6.10315C36.3319 6.03027 34.8632 5.94619 33.3553 5.94058C33.3553 7.1402 33.3496 8.28376 33.3553 9.44414C34.8856 9.50019 36.3543 9.55625 37.851 9.61791C37.8398 9.39368 37.8342 9.23112 37.823 9.04053C36.5169 8.98447 35.2556 8.93402 33.9831 8.88357C33.9831 8.56965 33.9831 8.28936 33.9831 8.00908C34.5773 8.00908 35.1379 8.00908 35.704 8.00908C36.2646 8.01469 36.8252 8.10998 37.3801 8.05953C37.3801 7.85212 37.3801 7.68956 37.3801 7.50457C36.231 7.45972 35.1154 7.41488 33.9775 7.36443C33.9831 7.08414 33.9831 6.83749 33.9831 6.52357ZM44.1966 8.31179C44.1966 8.04271 44.1966 7.77364 44.1966 7.50457C44.1966 7.47654 44.1966 7.44851 44.1966 7.42048C44.1742 6.95521 43.9724 6.68614 43.524 6.546C43.3894 6.50115 43.2493 6.47312 43.1091 6.46191C42.2459 6.39464 41.3826 6.32737 40.5193 6.26571C40.3624 6.2545 40.2054 6.26011 40.0541 6.27692C39.6 6.32177 39.3702 6.52918 39.3533 6.97763C39.3253 7.62789 39.3253 8.28376 39.3589 8.93962C39.3758 9.38247 39.6 9.6067 40.0316 9.7076C40.2222 9.75245 40.424 9.77487 40.6202 9.79169C41.2425 9.84214 41.8647 9.89259 42.4869 9.93183C42.8289 9.95425 43.1708 9.97667 43.5071 9.95986C43.95 9.93744 44.1798 9.69639 44.1966 9.25354C44.2079 8.93962 44.1966 8.62571 44.1966 8.31179ZM9.44141 9.53383C10.2486 9.44414 10.9998 9.36005 11.7453 9.27036C12.0985 9.22551 12.4517 9.18627 12.7936 9.1134C13.1356 9.04053 13.399 8.8163 13.4439 8.45753C13.4887 8.09317 13.4887 7.72319 13.4495 7.35882C13.4158 7.02809 13.186 6.83189 12.8553 6.78144C12.7039 6.75901 12.5414 6.7478 12.39 6.76462C11.7005 6.83189 11.0054 6.90476 10.3159 6.98324C9.8282 7.0393 9.34051 7.10657 8.84721 7.17383C8.84721 8.36224 8.84721 9.5058 8.84721 10.683C9.04901 10.6606 9.22839 10.6381 9.44141 10.6101C9.44141 10.2626 9.44141 9.92623 9.44141 9.53383ZM21.4656 6.08633C21.2358 6.09754 21.0564 6.10875 20.8322 6.11996C20.8322 6.30495 20.8322 6.46191 20.8322 6.61327C20.8322 7.26913 20.8266 7.925 20.8322 8.57525C20.8434 9.29839 21.0844 9.53943 21.8188 9.56186C21.8468 9.56186 21.8748 9.56186 21.9028 9.56186C22.811 9.52822 23.7247 9.5058 24.6328 9.44974C25.3672 9.4049 25.6026 9.14143 25.6082 8.39027C25.6138 7.69516 25.6082 6.99445 25.6082 6.29935C25.6082 6.18723 25.597 6.08072 25.5858 5.95179C25.384 5.95179 25.2046 5.95179 24.9972 5.95179C24.9916 6.10875 24.9748 6.2489 24.9748 6.38904C24.9748 7.07293 24.9804 7.75682 24.9692 8.44072C24.9635 8.78827 24.8963 8.87236 24.5431 8.88917C23.6462 8.93402 22.7549 8.96765 21.858 8.99568C21.5441 9.00689 21.4656 8.9172 21.46 8.58086C21.4544 8.2277 21.46 7.86894 21.46 7.51578C21.4656 7.06733 21.4656 6.61326 21.4656 6.08633ZM49.9985 7.16262C48.4289 6.98885 46.8986 6.81507 45.3346 6.64129C45.3346 6.85992 45.3346 7.02248 45.3346 7.21868C46.0073 7.29716 46.6631 7.37003 47.3639 7.44851C47.3639 8.44072 47.3639 9.39929 47.3639 10.3691C47.5881 10.3971 47.7675 10.4251 48.0029 10.4532C48.0029 9.46095 48.0029 8.51359 48.0029 7.52139C48.698 7.59426 49.3427 7.66153 49.9985 7.7344C49.9985 7.5326 49.9985 7.38124 49.9985 7.16262ZM20.6584 29.2602C20.6247 29.2266 20.5967 29.1986 20.5631 29.1649C19.6269 29.9385 18.6852 30.7121 17.749 31.4857C17.7602 31.5137 17.7771 31.5361 17.7883 31.5642C18.2928 31.3904 18.7973 31.2166 19.2962 31.0316C19.3691 31.0036 19.4419 30.9419 19.4924 30.8747C19.8848 30.3421 20.2716 29.804 20.6584 29.2602ZM15.1536 28.0718C14.6379 28.2008 14.2567 28.3913 14.0325 28.8286C14.324 29.1649 14.5818 29.4564 14.8733 29.7928C14.9126 29.6526 14.9406 29.5741 14.9518 29.4957C15.0191 29.0472 15.0807 28.6044 15.1536 28.0718ZM18.8758 20.4929C18.8646 20.79 18.8534 21.0367 18.8421 21.2889C19.6886 21.1993 19.8231 21.0479 19.5989 20.4537C19.3859 20.4649 19.1617 20.4761 18.8758 20.4929Z" fill="black"/>
<path id="Vector_4" d="M32.066 47.9552C31.9707 47.7646 31.9146 47.6525 31.8642 47.5404C31.5783 46.8453 31.3092 46.139 31.0121 45.4495C30.8551 45.0851 30.8551 44.7375 30.9953 44.3788C31.2643 43.6893 31.5054 42.9942 31.7913 42.3103C32.1837 41.3629 32.5985 40.4268 33.0077 39.4906C33.0638 39.3673 33.1254 39.2496 33.1871 39.1319C33.2151 39.1431 33.2432 39.1543 33.2712 39.1655C33.2319 39.3281 33.1983 39.4906 33.1535 39.6476C32.8283 40.8248 32.5256 42.0132 32.1781 43.1792C31.8642 44.2218 32.0772 45.2028 32.4415 46.1782C32.4696 46.1614 32.5088 46.1558 32.52 46.1334C32.8227 45.4831 33.3272 45.001 33.8542 44.5413C35.9171 42.7475 37.98 40.9593 40.0541 39.1823C40.3904 38.8964 40.5754 38.5881 40.6258 38.1453C40.8669 35.9478 40.8837 33.7448 40.766 31.5418C40.7436 31.0765 40.581 30.6561 40.3175 30.2693C39.7401 29.434 39.0675 28.6829 38.3443 27.9709C38.1257 27.7523 37.9856 27.5113 37.9183 27.203C37.6604 25.9473 37.3858 24.7028 37.1167 23.4472C37.0943 23.3406 37.0887 23.2285 37.0718 23.094C37.3521 23.1388 37.5539 23.2566 37.7277 23.4359C39.1852 24.9775 40.5586 26.5919 41.7638 28.3409C41.9432 28.6044 42.0553 28.8791 42.0889 29.2042C42.2403 30.6224 42.2683 32.0407 42.1786 33.4645C42.0721 35.2135 41.7974 36.94 41.3826 38.6442C41.2817 39.059 41.0687 39.3449 40.7436 39.6083C38.4396 41.4862 36.1525 43.3866 33.8598 45.2813C33.4618 45.612 33.1423 46.0044 32.8956 46.4641C32.6433 46.9462 32.3743 47.4114 32.066 47.9552Z" fill="white"/>
<path id="Vector_5" d="M25.7035 24.3499C25.9165 25.2019 26.1295 26.054 26.3313 26.9117C26.3986 27.1863 26.3089 27.4442 26.1968 27.6964C25.5241 29.2156 24.8795 30.7515 24.1732 32.2539C23.2594 34.2046 23.5734 33.6833 22.1607 35.1184C21.673 35.6173 21.1685 36.0938 20.6584 36.5702C20.4286 36.7833 20.266 37.0243 20.2268 37.3326C20.1539 37.8988 20.0978 38.4594 20.0362 39.0255C20.0025 39.3507 20.0866 39.6478 20.2548 39.9224C20.5463 40.3933 20.8266 40.8698 21.1461 41.3239C22.6484 43.4708 24.2797 45.5169 26.0174 47.4733C26.4827 48.0002 26.9872 48.4711 27.5926 48.8299C27.7664 48.9308 27.8953 49.1046 28.0467 49.2447C28.0299 49.2727 28.0131 49.3008 27.9962 49.3232C27.9122 49.2952 27.8281 49.2783 27.7496 49.2447C27.5085 49.127 27.2731 48.9868 27.0265 48.8859C26.2473 48.5608 25.6362 48.0171 25.0645 47.4172C23.2426 45.4945 21.5385 43.4764 19.9633 41.3407C19.6662 40.9427 19.4083 40.5166 19.1336 40.1018C18.9431 39.8047 18.8646 39.4796 18.9038 39.1264C18.9935 38.336 19.0832 37.5456 19.1617 36.7552C19.2065 36.3124 19.4027 35.9536 19.6942 35.6173C21.5665 33.403 23.3267 31.0935 24.9299 28.6718C25.1485 28.3411 25.3391 27.9879 25.5522 27.6516C25.7371 27.3601 25.8044 27.0518 25.7652 26.7155C25.7147 26.2614 25.6531 25.8129 25.6138 25.3589C25.5802 25.0281 25.5746 24.6918 25.5522 24.3555C25.6026 24.3555 25.6531 24.3499 25.7035 24.3499Z" fill="white"/>
<path id="Vector_6" d="M28.5792 14.9434C30.7822 14.6295 32.9965 14.4445 35.2219 14.2539C34.9697 14.0689 34.6782 13.9848 34.3755 13.9904C32.5816 13.996 30.7934 14.0017 28.9996 14.0297C28.2877 14.0409 27.5814 14.1138 26.8695 14.125C26.4154 14.1362 26.0062 14.2595 25.6082 14.4725C24.0946 15.291 22.5811 16.1038 21.0676 16.9222C20.7088 17.1184 20.35 17.3202 19.9408 17.5501C20.0249 17.2586 20.2099 17.1408 20.3949 17.0287C21.2918 16.4738 22.1046 15.8067 22.9118 15.1284C23.3323 14.7808 23.7135 14.3997 23.9601 13.912C24.1451 13.5532 24.4142 13.3906 24.8402 13.357C27.2675 13.172 29.6947 13.1047 32.1276 13.1944C32.9965 13.2281 33.8597 13.2729 34.7286 13.3122C35.1771 13.329 35.5975 13.4299 36.0011 13.6149C37.879 14.4725 39.6784 15.4759 41.4723 16.4906C41.5339 16.5242 41.6012 16.5578 41.6516 16.6083C42.4196 17.3426 43.1876 18.077 44.0172 18.8674C43.6304 18.901 43.3894 18.7889 43.1428 18.6432C42.0216 17.9705 40.9005 17.3034 39.7569 16.6644C39.4822 16.513 39.1459 16.4401 38.8264 16.4009C38.2938 16.3336 37.7445 16.3392 37.2119 16.2776C36.9373 16.2439 36.657 16.1711 36.3991 16.0589C35.7432 15.7843 35.0986 15.4872 34.4539 15.1845C34.0279 14.9883 33.5907 14.9266 33.1254 14.949C31.8305 15.0107 30.5412 15.0555 29.2463 15.1004C29.0276 15.106 28.8034 15.0892 28.5792 15.0836C28.5848 15.0219 28.5848 14.9827 28.5792 14.9434Z" fill="white"/>
<path id="Vector_7" d="M13.4383 24.2324C13.3318 24.3277 13.1748 24.4062 13.1188 24.5295C12.9562 24.9051 12.6423 25.1237 12.334 25.3479C12.1265 25.4993 11.9191 25.645 11.7229 25.7852C11.3193 25.5105 11.2465 25.1405 11.538 24.8154C11.7846 24.5407 12.0481 24.2772 12.3396 24.0474C13.3598 23.2514 14.4025 22.4834 15.4283 21.693C15.6525 21.5192 15.8768 21.3287 16.0281 21.1044C16.5719 20.2916 17.2726 19.675 18.1302 19.2153C18.6179 18.9574 19.0832 18.6547 19.6101 18.3408C19.5877 18.5426 19.4644 18.6155 19.3635 18.6884C19.0159 18.9574 18.6684 19.2321 18.3152 19.4956C18.1583 19.6133 18.063 19.7535 18.0462 19.9553C18.0181 20.2243 17.9452 20.4878 17.9284 20.7569C17.9172 21.0147 17.7827 21.1325 17.5585 21.2053C17.2614 21.3062 16.9755 21.4352 16.6784 21.5361C16.3981 21.6314 16.1907 21.8163 15.9384 22.0798C16.0954 22.063 16.1851 22.063 16.2691 22.0406C16.5719 21.9733 16.8746 21.8836 17.1829 21.8332C17.3286 21.8107 17.5024 21.8051 17.6313 21.8668C17.8836 21.9789 18.1246 21.9677 18.3769 21.906C18.5843 21.8556 18.7917 21.7939 18.9991 21.7547C19.6494 21.6314 20.266 21.4352 20.7705 20.9755C20.8098 20.9419 20.8602 20.925 20.9275 20.925C20.7032 21.3399 20.3949 21.6594 19.9409 21.8332C18.5058 22.3769 17.0708 22.9207 15.6357 23.4644C15.5404 23.4981 15.4395 23.5205 15.3554 23.5653C15.2433 23.6326 15.1424 23.7223 15.0359 23.8008C15.0471 23.8288 15.0583 23.8568 15.0639 23.8848C15.3722 23.9129 15.6749 23.9689 15.9833 23.9633C16.5102 23.9521 16.9138 24.1371 17.2501 24.5351C17.5248 24.8602 17.8443 25.1517 18.1358 25.46C18.2311 25.5609 18.3152 25.6731 18.4442 25.83C17.8892 25.9309 17.3903 26.015 16.897 26.1103C16.073 26.2729 15.2545 26.4522 14.4305 26.598C14.1166 26.654 13.9652 26.8222 13.9036 27.1193C13.8083 27.579 13.7017 28.033 13.584 28.5544C13.4271 28.4591 13.2757 28.4086 13.1804 28.3021C12.8048 27.8705 12.4461 27.4332 12.0985 26.9848C11.9191 26.755 11.936 26.6484 12.1322 26.4186C12.4068 26.0935 12.6815 25.7627 12.9842 25.46C13.3037 25.1237 13.4046 24.7089 13.4383 24.2324Z" fill="white"/>
<path id="Vector_8" d="M35.519 19.2373C35.6704 19.1476 35.7433 19.0915 35.8274 19.0579C36.7803 18.6487 37.7389 18.2451 38.6863 17.8302C39.1067 17.6453 39.4991 17.6733 39.9139 17.8695C41.9544 18.8281 43.8827 19.9772 45.727 21.2721C45.9793 21.4515 46.1082 21.6701 46.1642 21.9672C46.551 24.0694 46.5959 26.1827 46.4053 28.3017C46.3885 28.4698 46.338 28.638 46.2651 28.7894C45.4019 30.572 44.4377 32.2929 43.2493 33.8905C43.1652 34.0026 43.0755 34.1091 42.9129 34.2044C42.9242 33.9746 42.9634 33.7448 42.9466 33.5149C42.8961 32.8871 43.1316 32.433 43.6697 32.1079C43.8379 32.0014 43.9724 31.8052 44.0677 31.6202C44.5106 30.7906 44.9366 29.9553 45.3682 29.1257C45.7046 28.4754 45.8335 27.7915 45.7214 27.0628C45.542 25.88 45.3851 24.6972 45.2113 23.5144C45.1945 23.4023 45.1552 23.2958 45.1328 23.1837C45.0711 22.8473 44.8749 22.6231 44.5666 22.4886C43.9892 22.2419 43.4118 22.0121 42.8457 21.743C42.543 21.5973 42.2403 21.4291 41.9712 21.2217C41.1023 20.549 40.2502 19.8651 39.4038 19.17C39.045 18.8785 38.6638 18.7832 38.2098 18.9177C37.8286 19.0355 37.425 19.0747 37.055 19.2092C36.5673 19.383 36.0908 19.2989 35.519 19.2373Z" fill="white"/>
<path id="Vector_9" d="M30.188 49.6761C30.132 49.5977 30.0703 49.5192 30.0255 49.4351C28.7082 47.0919 27.4637 44.7095 26.393 42.2374C26.1407 41.66 26.0959 41.1107 26.2585 40.5052C26.8415 38.2854 27.5758 36.1216 28.355 33.969C28.6072 33.2739 28.8763 32.5844 29.1398 31.8949C29.1846 31.7772 29.2407 31.6651 29.3304 31.5474C29.4425 32.0351 29.6443 32.5059 29.5378 33.0217C29.0837 35.292 28.6129 37.5623 28.1756 39.8382C28.013 40.6902 27.9234 41.5535 27.8393 42.4168C27.8112 42.7195 27.8673 43.0502 27.9738 43.3361C28.4447 44.631 28.9492 45.9147 29.4481 47.204C29.6051 47.6133 29.7732 48.0281 29.9638 48.4205C30.16 48.8129 30.2161 49.2333 30.188 49.6761Z" fill="white"/>
<path id="Vector_10" d="M18.6179 19.9156C18.7525 19.8483 18.887 19.7642 19.0271 19.7194C19.4363 19.5904 19.7391 19.3382 19.9913 18.9906C20.2324 18.6543 20.4902 18.3348 20.7705 18.0321C20.9499 17.8415 21.1573 17.6397 21.3871 17.5332C22.3401 17.0959 23.3043 16.6755 24.2797 16.2887C24.857 16.0589 25.4681 16.1429 26.0847 16.1654C26.0679 16.2551 26.0735 16.3055 26.0511 16.3335C25.6026 17.1071 25.1654 17.8919 24.7001 18.6487C24.6048 18.8 24.4142 18.929 24.2348 18.985C23.3715 19.2709 22.5027 19.5344 21.6338 19.7978C20.9555 20.0053 20.2548 19.9492 19.5653 20.0053C19.2626 20.0277 18.9543 20.0109 18.6459 20.0109C18.6347 19.9828 18.6291 19.9492 18.6179 19.9156Z" fill="white"/>
<path id="Vector_11" d="M18.6908 26.5249C18.8646 26.5305 19.044 26.5137 19.2065 26.5529C20.1034 26.7659 21.0003 27.0014 21.8973 27.2144C22.3345 27.3209 22.5083 27.6573 22.6484 28.016C22.6877 28.1169 22.6428 28.2739 22.5867 28.3804C21.9645 29.4959 21.3311 30.6114 20.6976 31.7214C20.5799 31.9344 20.3781 32.0353 20.1595 32.1082C19.2962 32.3997 18.4385 32.6968 17.5753 32.9883C17.1829 33.1228 17.1661 33.1508 17.2277 33.532C17.3006 33.9524 17.3735 34.3729 17.4519 34.7933C17.508 35.0848 17.5641 35.124 17.8612 35.0736C18.1975 35.0119 18.5282 34.9222 18.859 34.8549C18.9487 34.8381 19.044 34.8325 19.1729 34.8886C18.9879 35.0343 18.8309 35.2361 18.6235 35.3202C18.2311 35.4772 17.8107 35.5781 17.3959 35.6734C17.1268 35.735 17.0427 35.6678 16.9699 35.3875C16.869 34.9895 16.7905 34.5803 16.684 34.1823C16.5494 33.7058 16.4373 33.2125 16.2355 32.764C16.0169 32.2763 16.0786 31.7999 16.1234 31.2561C16.2355 31.3346 16.3196 31.3794 16.3869 31.4411C16.5943 31.6149 16.8017 31.7886 16.9979 31.9736C17.1604 32.1194 17.3286 32.1586 17.5416 32.0857C18.1583 31.8727 18.7861 31.6877 19.4027 31.4635C19.5765 31.3962 19.7503 31.2617 19.868 31.116C20.5014 30.3424 21.0508 29.5127 21.5217 28.6326C21.7795 28.1449 21.6114 27.7077 21.0844 27.5115C20.4061 27.2592 19.7222 27.0182 19.0384 26.7716C18.9094 26.7267 18.7861 26.6707 18.6628 26.6202C18.6796 26.581 18.6852 26.5529 18.6908 26.5249Z" fill="white"/>
<path id="Vector_12" d="M32.8451 24.7759C32.5368 24.5966 32.3967 24.4004 32.3182 24.1425C32.0603 23.2848 31.7968 22.4328 31.5278 21.5807C31.4549 21.3509 31.4941 21.1771 31.6399 20.9921C31.9762 20.5661 32.3014 20.1344 32.6153 19.6972C32.8843 19.3272 32.6938 18.7106 32.2733 18.5312C32.0211 18.4247 31.7744 18.3967 31.4941 18.5088C30.771 18.8059 30.0311 19.0638 29.3135 19.3665C28.9716 19.5122 28.6408 19.5627 28.2821 19.473C28.0354 19.4113 27.7832 19.3777 27.5365 19.3328C27.6094 18.7779 27.8785 18.4583 28.3774 18.3574C29.5434 18.122 30.7206 17.9034 31.8865 17.6567C32.3238 17.5614 32.6601 17.7576 33.0077 17.9426C33.0637 17.9706 33.103 18.0435 33.1366 18.1052C33.1646 18.1556 33.1702 18.2117 33.1815 18.2677C33.4954 19.7252 33.501 19.3945 32.8059 20.5212C32.6882 20.7174 32.576 20.9192 32.4247 21.0874C32.1836 21.3565 32.2005 21.648 32.2677 21.9675C32.4471 22.8027 32.6209 23.6324 32.7947 24.4676C32.8115 24.5517 32.8227 24.6358 32.8451 24.7759Z" fill="white"/>
<path id="Vector_13" d="M19.3243 9.13046C19.3243 9.34348 19.3243 9.49483 19.3243 9.70225C17.85 9.81436 16.3869 9.92647 14.8902 10.0386C14.8902 8.867 14.8902 7.72344 14.8902 6.51261C16.3533 6.4005 17.8219 6.28838 19.3131 6.17627C19.3243 6.31081 19.3411 6.38929 19.3411 6.47337C19.3411 6.55746 19.3299 6.64154 19.3187 6.75926C18.0574 6.85456 16.8017 6.94985 15.518 7.04515C15.518 7.33665 15.518 7.59451 15.518 7.886C16.6503 7.80192 17.7603 7.72344 18.8982 7.64496C18.8982 7.86358 18.8982 8.02614 18.8982 8.21674C17.7659 8.30643 16.6504 8.39051 15.5124 8.48021C15.5124 8.78852 15.5124 9.0688 15.5124 9.39954C16.7681 9.30985 18.0181 9.22016 19.3243 9.13046Z" fill="white"/>
<path id="Vector_14" d="M31.2026 8.83308C31.2026 8.51356 31.2026 8.23327 31.2026 7.90814C30.6084 7.90814 30.0367 7.90814 29.4256 7.90814C29.4256 7.70073 29.4256 7.53817 29.4256 7.34197C30.2048 7.34197 30.9952 7.34197 31.8417 7.34197C31.8753 8.02026 31.8641 8.69294 31.8473 9.39365C31.6959 9.40486 31.5726 9.42168 31.4493 9.42168C30.4122 9.42168 29.3752 9.41607 28.3325 9.40486C28.1475 9.40486 27.9625 9.38804 27.7832 9.35441C27.3908 9.28714 27.1553 9.06852 27.1385 8.67612C27.1105 8.00905 27.1105 7.33636 27.1385 6.66929C27.1609 6.23765 27.402 6.01342 27.8336 5.92373C27.985 5.8901 28.1419 5.86768 28.2989 5.86768C29.3247 5.86768 30.345 5.87328 31.3708 5.87328C31.4381 5.87328 31.5053 5.88449 31.6006 5.8957C31.6006 6.07509 31.6006 6.23765 31.6006 6.45067C31.4381 6.45067 31.2867 6.45067 31.1354 6.45067C30.1992 6.45067 29.2575 6.44506 28.3213 6.44506C27.8 6.44506 27.7327 6.52354 27.7327 7.04487C27.7327 7.48772 27.7271 7.92496 27.7327 8.36781C27.7383 8.68733 27.856 8.81626 28.17 8.81626C29.1622 8.83869 30.1544 8.83308 31.2026 8.83308Z" fill="white"/>
<path id="Vector_15" d="M33.9831 6.52366C33.9831 6.83758 33.9831 7.08423 33.9831 7.36452C35.121 7.40936 36.2365 7.45421 37.3857 7.50466C37.3857 7.69525 37.3857 7.85221 37.3857 8.05962C36.8307 8.11007 36.2702 8.00917 35.7096 8.00917C35.1434 8.00357 34.5773 8.00917 33.9887 8.00917C33.9887 8.28946 33.9887 8.56413 33.9887 8.88366C35.2612 8.93411 36.5224 8.99017 37.8286 9.04062C37.8398 9.2256 37.8454 9.38817 37.8566 9.618C36.3599 9.56195 34.8912 9.50589 33.3608 9.44423C33.3552 8.28385 33.3608 7.14029 33.3608 5.94067C34.8688 5.94628 36.3374 6.03036 37.8286 6.10324C37.8286 6.29944 37.8286 6.462 37.8286 6.66381C36.5449 6.61336 35.2892 6.56851 33.9831 6.52366Z" fill="white"/>
<path id="Vector_16" d="M44.1966 8.31215C44.1966 8.62607 44.2078 8.93999 44.191 9.2483C44.1686 9.69115 43.9387 9.9322 43.5015 9.95462C43.1652 9.97144 42.8176 9.94901 42.4813 9.92659C41.859 9.88735 41.2368 9.8369 40.6146 9.78645C40.4184 9.76963 40.2166 9.74721 40.026 9.70236C39.5943 9.60146 39.3757 9.37723 39.3533 8.93438C39.3253 8.28412 39.3253 7.62826 39.3477 6.97239C39.3645 6.52394 39.5999 6.31653 40.0484 6.27168C40.2054 6.25487 40.3623 6.24926 40.5137 6.26047C41.3769 6.32213 42.2402 6.3838 43.1035 6.45667C43.2436 6.46788 43.3838 6.50152 43.5183 6.54076C43.9668 6.6809 44.1686 6.94997 44.191 7.41524C44.191 7.44327 44.191 7.4713 44.191 7.49933C44.2022 7.77401 44.2022 8.04308 44.1966 8.31215ZM43.5912 8.2617C43.5912 8.00384 43.5968 7.75158 43.5912 7.49372C43.58 7.18541 43.4903 7.0733 43.1932 7.05087C42.2458 6.96679 41.2985 6.89391 40.3511 6.82665C40.0876 6.80983 39.9643 6.90512 39.9587 7.16299C39.9419 7.71795 39.9419 8.26731 39.9587 8.82227C39.9643 9.06331 40.0932 9.16982 40.3455 9.19225C41.2929 9.27072 42.2402 9.33799 43.1876 9.40526C43.4735 9.42208 43.5688 9.32117 43.58 9.03528C43.6024 8.77182 43.5912 8.51396 43.5912 8.2617Z" fill="white"/>
<path id="Vector_17" d="M9.4414 9.53415C9.4414 9.92094 9.4414 10.2573 9.4414 10.616C9.22839 10.6441 9.049 10.6609 8.8472 10.6889C8.8472 9.50612 8.8472 8.36256 8.8472 7.17976C9.3405 7.1181 9.82819 7.04523 10.3159 6.98917C11.0054 6.91069 11.7005 6.83782 12.39 6.77055C12.5413 6.75373 12.7039 6.76494 12.8553 6.78737C13.186 6.83782 13.4158 7.03402 13.4495 7.36475C13.4831 7.72912 13.4887 8.0991 13.4439 8.46347C13.399 8.82223 13.1355 9.04085 12.7936 9.11933C12.446 9.19781 12.0929 9.23144 11.7453 9.27629C10.9998 9.36037 10.2486 9.44446 9.4414 9.53415ZM9.46943 8.94555C9.78895 8.91192 10.0524 8.87829 10.3215 8.85026C11.039 8.77178 11.7565 8.6933 12.4741 8.60361C12.788 8.56437 12.8553 8.47468 12.8665 8.16076C12.8721 8.02062 12.8721 7.87487 12.8665 7.73473C12.8553 7.38157 12.7656 7.30309 12.4292 7.33672C11.9079 7.38717 11.3866 7.44323 10.8652 7.50489C10.4056 7.56095 9.94591 7.62261 9.46943 7.68427C9.46943 8.11031 9.46943 8.4971 9.46943 8.94555Z" fill="white"/>
<path id="Vector_18" d="M21.4656 6.08694C21.4656 6.61387 21.4656 7.06793 21.4656 7.52199C21.4656 7.87515 21.46 8.23392 21.4656 8.58707C21.4712 8.91781 21.5497 9.0075 21.8636 9.00189C22.7605 8.97387 23.6574 8.94023 24.5487 8.89539C24.9019 8.87857 24.9692 8.79448 24.9748 8.44693C24.9804 7.76304 24.9748 7.07914 24.9804 6.39525C24.9804 6.25511 24.9916 6.12057 25.0028 5.95801C25.2102 5.95801 25.384 5.95801 25.5914 5.95801C25.597 6.08133 25.6138 6.19345 25.6138 6.30556C25.6138 7.00067 25.6194 7.70138 25.6138 8.39648C25.6082 9.14204 25.3728 9.41111 24.6384 9.45595C23.7303 9.50641 22.8222 9.52883 21.9085 9.56807C21.8804 9.56807 21.8524 9.56807 21.8244 9.56807C21.0956 9.54004 20.849 9.3046 20.8378 8.58147C20.8266 7.9256 20.8378 7.26974 20.8378 6.61948C20.8378 6.46813 20.8378 6.31117 20.8378 6.12618C21.0564 6.10936 21.2358 6.09815 21.4656 6.08694Z" fill="white"/>
<path id="Vector_19" d="M49.9985 7.1627C49.9985 7.38132 49.9985 7.53828 49.9985 7.74008C49.3427 7.67281 48.698 7.59994 48.0029 7.52706C48.0029 8.51927 48.0029 9.46663 48.0029 10.4588C47.7675 10.4252 47.5881 10.4028 47.3638 10.3748C47.3638 9.40497 47.3638 8.44079 47.3638 7.45419C46.6631 7.37571 46.0073 7.30284 45.3346 7.22436C45.3346 7.02816 45.3346 6.86559 45.3346 6.64697C46.893 6.81514 48.4289 6.98892 49.9985 7.1627Z" fill="white"/>
<path id="Vector_20" d="M20.6584 29.2606C20.2716 29.7987 19.8848 30.3425 19.4924 30.8806C19.4419 30.9479 19.3691 31.0096 19.2962 31.0376C18.7973 31.2226 18.2872 31.3964 17.7883 31.5701C17.777 31.5421 17.7602 31.5197 17.749 31.4917C18.6852 30.7181 19.6269 29.9445 20.5631 29.1709C20.5911 29.1989 20.6247 29.2326 20.6584 29.2606Z" fill="white"/>
<path id="Vector_21" d="M15.1536 28.0718C15.0807 28.5987 15.019 29.0472 14.9518 29.4956C14.9406 29.5741 14.9125 29.6526 14.8733 29.7927C14.5818 29.4564 14.3239 29.1649 14.0324 28.8285C14.2567 28.3913 14.6322 28.2007 15.1536 28.0718Z" fill="white"/>
<path id="Vector_22" d="M18.8758 20.4931C19.1617 20.4763 19.3859 20.4651 19.5989 20.4539C19.8231 21.0481 19.6886 21.1938 18.8421 21.2891C18.8533 21.0368 18.8589 20.7902 18.8758 20.4931Z" fill="white"/>
<path id="Vector_23" d="M43.5913 8.26154C43.5913 8.5194 43.5969 8.77166 43.5913 9.02952C43.58 9.31541 43.4791 9.41631 43.1989 9.3995C42.2515 9.33783 41.3041 9.26496 40.3568 9.18648C40.1045 9.16406 39.9756 9.05755 39.97 8.8165C39.9532 8.26154 39.9532 7.71219 39.97 7.15722C39.9756 6.90497 40.0989 6.80406 40.3624 6.82088C41.3097 6.88815 42.2571 6.96102 43.2045 7.04511C43.5016 7.07314 43.5912 7.17964 43.6025 7.48796C43.5969 7.74582 43.5913 8.00368 43.5913 8.26154Z" fill="black"/>
<path id="Vector_24" d="M9.46945 8.9455C9.46945 8.49704 9.46945 8.11025 9.46945 7.68422C9.94594 7.62255 10.4056 7.56089 10.8653 7.50483C11.3866 7.44317 11.9079 7.38712 12.4293 7.33666C12.7656 7.30303 12.8553 7.38712 12.8665 7.73467C12.8721 7.87481 12.8721 8.02056 12.8665 8.1607C12.8553 8.47462 12.788 8.56431 12.4741 8.60355C11.7566 8.69324 11.039 8.76611 10.3215 8.8502C10.0524 8.87823 9.78898 8.91186 9.46945 8.9455Z" fill="black"/>
</g>
</g>
</svg>
