<svg width="53" height="52" viewBox="0 0 53 52" fill="none" xmlns="http://www.w3.org/2000/svg">
<g id="Component 10">
<path id="Vector" fill-rule="evenodd" clip-rule="evenodd" d="M14.0759 11.5813H33.8411C34.7872 11.5813 35.5615 12.3555 35.5615 13.3017C35.5615 14.2479 34.7872 15.0222 33.8411 15.0222H14.0759C13.1297 15.0222 12.3553 14.2481 12.3553 13.3017C12.3553 12.3555 13.1297 11.5813 14.0759 11.5813ZM33.8411 16.8504H14.0759C13.8936 16.8504 13.7146 16.8366 13.5398 16.81C5.61148 24.8538 -0.517915 35.6953 6.45537 44.831C9.46375 48.772 13.7302 50.8828 18.6883 50.8828H29.2283C32.5853 50.8828 35.6251 49.9152 38.1723 48.0668L36.417 46.1863C35.0669 44.7398 36.0969 42.3702 38.0753 42.3702H38.5145V28.5399C38.5145 26.9779 39.7428 25.6982 41.2844 25.6153C39.4602 22.4807 37.0186 19.4899 34.3771 16.8099C34.2023 16.8366 34.0232 16.8504 33.8411 16.8504ZM23.9584 23.3769C29.2468 23.3769 33.5341 27.6641 33.5341 32.9525C33.5341 38.241 29.2468 42.5281 23.9584 42.5281C18.6701 42.5281 14.383 38.241 14.383 32.9525C14.3829 27.6641 18.67 23.3769 23.9584 23.3769ZM17.3271 4.91085C11.0296 2.58324 10.5072 3.82982 13.0851 7.50973C13.8043 8.53613 14.2397 9.19019 14.5583 9.75315H33.3585C33.6771 9.19019 34.1127 8.53623 34.8317 7.50973C37.4099 3.82992 36.8871 2.58324 30.5899 4.91085C27.9465 5.88788 29.0595 1.11719 23.9584 1.11719C18.8575 1.11719 19.9705 5.88788 17.3271 4.91085ZM41.4434 27.4391H45.7801C46.3863 27.4391 46.8808 27.9336 46.8808 28.5399V44.1984H49.1481C49.5333 44.1984 49.7329 44.6574 49.4698 44.9391L44.1348 50.6553C43.8518 50.9586 43.3717 50.9586 43.0887 50.6553L37.7535 44.9391C37.4906 44.6574 37.6902 44.1984 38.0754 44.1984H40.3427V28.5399C40.3427 27.9338 40.8372 27.4391 41.4434 27.4391ZM23.9584 25.9679C27.816 25.9679 30.943 29.0949 30.943 32.9525C30.943 36.81 27.816 39.937 23.9584 39.937C20.1011 39.937 16.9739 36.81 16.9739 32.9525C16.9739 29.0949 20.101 25.9679 23.9584 25.9679ZM23.1206 28.5534C23.1206 28.0485 23.5297 27.6393 24.0346 27.6393C24.5395 27.6393 24.9487 28.0485 24.9487 28.5534V28.7839C25.13 28.8324 25.3043 28.9002 25.4698 28.985C25.8361 29.1731 26.152 29.4456 26.3906 29.7757C26.6844 30.184 26.5917 30.753 26.1835 31.0468C25.8776 31.267 25.4811 31.2702 25.178 31.0857C25.0768 31.0243 24.986 30.9419 24.9126 30.8398C24.7665 30.6376 24.5466 30.5263 24.2977 30.5263H23.7718C23.3578 30.5263 23.0158 30.8685 23.0158 31.2825C23.0158 31.6962 23.3578 32.0384 23.7718 32.0384H24.1451C25.5682 32.0384 26.7292 33.1997 26.7292 34.6225C26.7292 35.819 25.905 36.8323 24.7963 37.123V37.3515C24.7963 37.8564 24.3871 38.2656 23.8823 38.2656C23.3774 38.2656 22.9682 37.8564 22.9682 37.3515V37.121C22.3894 36.9666 21.8778 36.6152 21.5263 36.1291C21.2325 35.7209 21.3252 35.152 21.7334 34.858C22.144 34.5626 22.7126 34.6596 23.0046 35.0651C23.1507 35.2674 23.3704 35.3785 23.6195 35.3785H24.1452C24.561 35.3785 24.9011 35.038 24.9011 34.6224C24.9011 34.2086 24.5592 33.8664 24.1452 33.8664H23.7719C23.6457 33.8664 23.5215 33.8573 23.4002 33.8396C22.136 33.6559 21.1878 32.563 21.1878 31.2823C21.1878 30.1072 21.9884 29.0774 23.1207 28.7817L23.1206 28.5534Z" fill="#E21C21"/>
</g>
</svg>
