<svg width="46" height="46" viewBox="0 0 46 46" fill="none" xmlns="http://www.w3.org/2000/svg">
<g id="image (4) 1" opacity="0.43" clip-path="url(#clip0_239_1658)">
<path id="Vector" d="M11.9783 35.5181C8.90982 35.5181 6.1804 33.5534 5.18929 30.6285L5.12226 30.4081C4.88852 29.6335 4.7906 28.9821 4.7906 28.3304V15.262L0.140718 30.7836C-0.457319 33.0666 0.905462 35.4335 3.19197 36.0642L32.8303 44.0015C33.2002 44.0973 33.5701 44.1433 33.9344 44.1433C35.8433 44.1433 37.5875 42.8763 38.0764 41.0092L39.8031 35.5181H11.9783Z" fill="black"/>
<path id="Vector_2" d="M17.2493 15.3926C19.3635 15.3926 21.0825 13.6732 21.0825 11.559C21.0825 9.44484 19.3635 7.72549 17.2493 7.72549C15.1351 7.72549 13.4158 9.44484 13.4158 11.559C13.4158 13.6732 15.1351 15.3926 17.2493 15.3926Z" fill="black"/>
<path id="Vector_3" d="M41.2081 1.97534H12.4574C9.81646 1.97534 7.66577 4.12603 7.66577 6.76736V27.851C7.66577 30.4923 9.81646 32.643 12.4574 32.643H41.2081C43.8495 32.643 46.0002 30.4923 46.0002 27.851V6.76736C46.0002 4.12603 43.8495 1.97534 41.2081 1.97534ZM12.4574 5.80889H41.2081C41.7374 5.80889 42.1666 6.23811 42.1666 6.76736V20.3741L36.1118 13.3089C35.4696 12.5558 34.5399 12.1532 33.5414 12.1304C32.5485 12.136 31.6171 12.5768 30.9808 13.3398L23.8619 21.8843L21.5428 19.5708C20.2319 18.2599 18.0984 18.2599 16.7893 19.5708L11.4993 24.859V6.76736C11.4993 6.23811 11.9285 5.80889 12.4574 5.80889Z" fill="black"/>
</g>
<defs>
<clipPath id="clip0_239_1658">
<rect width="46" height="46" fill="white"/>
</clipPath>
</defs>
</svg>
