<svg width="53" height="52" viewBox="0 0 53 52" fill="none" xmlns="http://www.w3.org/2000/svg">
<g id="Component 10" clip-path="url(#clip0_551_643)">
<path id="Vector" d="M32.6953 19.8047V31.9922H45.9318C46.4757 31.9922 46.9962 31.7732 47.3774 31.3848L51.2079 27.4786C51.9644 26.7074 51.985 25.4767 51.2543 24.6801L47.3842 20.4613C47.0002 20.0427 46.459 19.8047 45.8921 19.8047H32.6953Z" fill="#E21C21"/>
<path id="Vector_2" d="M20.4063 7.61719H7.16984C6.62592 7.61719 6.10541 7.83618 5.72416 8.22458L1.89374 12.1308C1.13718 12.902 1.11655 14.1327 1.84733 14.9293L5.71741 19.1481C6.10145 19.5667 6.64258 19.8047 7.20951 19.8047H20.4063V7.61719Z" fill="#E21C21"/>
<path id="Vector_3" d="M29.6484 49.9688V2.03125C29.6484 0.909302 28.7391 0 27.6172 0H25.5859C24.464 0 23.5547 0.909302 23.5547 2.03125V49.9688C23.5547 51.0907 24.464 52 25.5859 52H27.6172C28.7391 52 29.6484 51.0907 29.6484 49.9688Z" fill="#E21C21"/>
</g>
<defs>
<clipPath id="clip0_551_643">
<rect width="52" height="52" fill="white" transform="translate(0.5)"/>
</clipPath>
</defs>
</svg>
