<svg width="46" height="45" viewBox="0 0 46 45" fill="none" xmlns="http://www.w3.org/2000/svg">
<g id="layer1">
<path id="path52" d="M22.9746 0.266664C22.6645 0.269735 22.358 0.334138 22.0727 0.456299C21.7873 0.578474 21.5288 0.755983 21.312 0.978554C21.095 1.20115 20.924 1.46459 20.8086 1.75354C20.6933 2.04224 20.6358 2.35082 20.6393 2.66184V20.4116V20.4117C20.6394 21.04 20.8881 21.6428 21.3307 22.0873C21.7734 22.5318 22.3738 22.7815 23 22.7815C23.6262 22.7815 24.2266 22.5318 24.6692 22.0873C25.1119 21.6428 25.3605 21.04 25.3607 20.4117V20.4116V2.66185C25.3642 2.34655 25.3051 2.03365 25.1866 1.74159C25.068 1.44928 24.8925 1.18361 24.6702 0.960342C24.4479 0.73706 24.1834 0.560756 23.8922 0.441608C23.601 0.322466 23.289 0.262993 22.9746 0.266664ZM22.9746 0.266664C22.9746 0.266665 22.9745 0.266665 22.9745 0.266666L22.9762 0.416655L22.9748 0.266663C22.9747 0.266663 22.9747 0.266664 22.9746 0.266664ZM35.6348 4.72091L35.6324 4.72111C35.166 4.76089 34.7219 4.93918 34.3568 5.23309C33.9916 5.52699 33.7218 5.92318 33.5816 6.37139C33.4414 6.81959 33.4372 7.29964 33.5693 7.75029C33.7014 8.20061 33.9637 8.60141 34.3232 8.90177C38.1165 12.1374 40.5162 16.9529 40.5162 22.3612C40.5162 32.1273 32.7094 39.9966 23.0107 39.9966C13.312 39.9966 5.48805 32.1271 5.48807 22.3612C5.48809 16.9841 7.85738 12.2012 11.6129 8.96594C11.8485 8.76395 12.0421 8.51732 12.1827 8.24032C12.3234 7.96321 12.4083 7.66104 12.4327 7.35101C12.457 7.04097 12.4204 6.72928 12.3248 6.43346C12.2292 6.13764 12.0765 5.86359 11.8754 5.62698C11.6743 5.39036 11.4287 5.19579 11.1527 5.05443C10.8767 4.9131 10.5756 4.82756 10.2666 4.80306C9.95764 4.77856 9.64693 4.8155 9.35222 4.91161C9.05751 5.00772 8.78455 5.16114 8.54894 5.36317L8.54868 5.3634C3.78894 9.46371 0.766693 15.5755 0.766672 22.3612C0.766652 34.6849 10.7534 44.7332 23.0108 44.7332C35.2683 44.7332 45.2333 34.6847 45.2333 22.3612C45.2332 15.5363 42.1814 9.3996 37.3738 5.2986C36.9547 4.932 36.4201 4.72573 35.8643 4.71628C35.7878 4.71409 35.7112 4.71564 35.6348 4.72091Z" fill="#E21C21" stroke="#E21C21" stroke-width="0.3"/>
</g>
</svg>
