<svg width="53" height="52" viewBox="0 0 53 52" fill="none" xmlns="http://www.w3.org/2000/svg">
<g id="Component 10" clip-path="url(#clip0_551_909)">
<path id="Vector" d="M52.3049 49.5951L40.9299 29.0117C40.6265 28.4701 40.1499 28.2101 39.4782 28.1667C38.8715 28.1667 38.3299 28.5134 38.0482 29.0551L36.2065 32.6517L44.8299 47.9917C45.5232 49.2051 45.6315 50.6784 45.1549 52.0001H50.8749C51.4599 52.0001 51.9799 51.6967 52.2832 51.1984C52.5649 50.7001 52.5649 50.0934 52.3049 49.5951Z" fill="#E21C21"/>
<path id="Vector_2" d="M41.9915 49.5732L31.6132 31.0916L27.4749 34.6016C26.6082 35.3382 25.4815 35.7499 24.3332 35.7499C23.1199 35.7499 21.9715 35.3166 21.0832 34.5149C20.1949 35.3166 19.0465 35.7499 17.8332 35.7499C16.6849 35.7499 15.5582 35.3382 14.6699 34.5799L10.7265 31.2432L0.694869 49.5949C0.413203 50.0932 0.434869 50.6999 0.716536 51.1982C1.01987 51.6966 1.56154 51.9999 2.12487 51.9999H40.5832C41.1682 51.9999 41.6882 51.6966 41.9915 51.1982C42.2732 50.6999 42.2732 50.0716 41.9915 49.5732Z" fill="#E21C21"/>
<path id="Vector_3" d="M33.5418 10.8333H21.0835C20.1865 10.8333 19.4585 10.1053 19.4585 9.20833V1.625C19.4585 0.728 20.1865 0 21.0835 0H33.5418C34.1767 0 34.753 0.368333 35.0173 0.946833C35.2838 1.52317 35.1885 2.20133 34.7747 2.6845L32.4325 5.41667L34.7768 8.151C35.1907 8.63417 35.2838 9.31233 35.0195 9.88867C34.753 10.465 34.1767 10.8333 33.5418 10.8333Z" fill="#E21C21"/>
<path id="Vector_4" d="M21.0835 17.3333C20.1865 17.3333 19.4585 16.6053 19.4585 15.7083V1.625C19.4585 0.728 20.1865 0 21.0835 0C21.9805 0 22.7085 0.728 22.7085 1.625V15.7083C22.7085 16.6053 21.9805 17.3333 21.0835 17.3333Z" fill="#E21C21"/>
<path id="Vector_5" d="M29.9881 28.21L25.3731 32.11C25.0698 32.37 24.7014 32.5 24.3331 32.5C23.9214 32.5 23.5098 32.3484 23.1848 32.0234L21.0831 29.9217L18.9814 32.0234C18.3748 32.63 17.4214 32.6517 16.7931 32.11L12.3081 28.34L13.9114 25.4367L19.6531 14.9284C19.9348 14.4084 20.4764 14.0834 21.0831 14.0834C21.6248 14.0184 22.2098 14.3867 22.4914 14.9067L28.3631 25.3284L29.9881 28.21Z" fill="#E21C21"/>
</g>
<defs>
<clipPath id="clip0_551_909">
<rect width="52" height="52" fill="white" transform="translate(0.5)"/>
</clipPath>
</defs>
</svg>
