<svg width="70" height="70" viewBox="0 0 70 70" fill="none" xmlns="http://www.w3.org/2000/svg">
<g id="thumbs-up (1) 1" clip-path="url(#clip0_237_1558)">
<g id="Page-1">
<g id="011---Approved-Cleaning">
<path id="Shape" d="M61.875 51.25C61.8777 51.6769 61.8014 52.1007 61.65 52.5C61.4725 53.0289 61.1727 53.5086 60.775 53.9C60.073 54.6042 59.1194 55 58.125 55H55.625C57.6961 55 59.375 56.6789 59.375 58.75C59.3777 59.1769 59.3014 59.6007 59.15 60C58.9725 60.5289 58.6727 61.0086 58.275 61.4C57.573 62.1042 56.6194 62.5 55.625 62.5H53.125C55.1961 62.5 56.875 64.1789 56.875 66.25C56.875 68.321 55.1961 70 53.125 70H30.625C28.7125 70.03 26.8119 69.6948 25.025 69.0125C23.8 68.525 22.725 67.7375 21.5375 67.1625C20.2767 66.5605 18.8971 66.2487 17.5 66.25H14.375L16.875 41.25C19.4196 41.2471 21.9099 40.5139 24.05 39.1375C28.5625 36.2625 35.4 31.0375 33.925 24.3875C33.425 22.15 33.2375 19.9625 35.625 18.75C38.275 17.4 40.8125 19.1125 42.05 21.275C46.2125 28.5625 38.9375 40 38.9375 40H56.875C58.9461 40 60.625 41.6789 60.625 43.75C60.6277 44.1769 60.5514 44.6007 60.4 45C60.2225 45.5289 59.9227 46.0086 59.525 46.4C58.823 47.1042 57.8694 47.5 56.875 47.5H58.125C60.1961 47.5 61.875 49.1789 61.875 51.25Z" fill="#FDD7AD"/>
<path id="Shape_2" d="M59.15 60C58.9725 60.529 58.6727 61.0086 58.275 61.4C57.573 62.1043 56.6194 62.5001 55.625 62.5H49.375C48.6846 62.5 48.125 61.9404 48.125 61.25C48.125 60.5596 48.6846 60 49.375 60H59.15Z" fill="#F9C795"/>
<path id="Shape_3" d="M61.65 52.5C61.4725 53.029 61.1727 53.5086 60.775 53.9C60.073 54.6043 59.1194 55.0001 58.125 55H49.375C48.6846 55 48.125 54.4404 48.125 53.75C48.125 53.0596 48.6846 52.5 49.375 52.5H61.65Z" fill="#F9C795"/>
<path id="Shape_4" d="M60.4 45C60.2225 45.529 59.9227 46.0086 59.525 46.4C58.823 47.1043 57.8694 47.5001 56.875 47.5H49.375C48.6846 47.5 48.125 46.9404 48.125 46.25C48.125 45.5596 48.6846 45 49.375 45H60.4Z" fill="#F9C795"/>
<path id="Rectangle-path" d="M13.125 37.5H6.875C4.80393 37.5 3.125 39.1789 3.125 41.25V66.25C3.125 68.3211 4.80393 70 6.875 70H13.125C15.1961 70 16.875 68.3211 16.875 66.25V41.25C16.875 39.1789 15.1961 37.5 13.125 37.5Z" fill="#E21C21"/>
<g id="Group">
<path id="Shape_5" d="M60.625 27.5C59.9346 27.5 59.375 26.9404 59.375 26.25V23.75C59.375 23.0596 59.9346 22.5 60.625 22.5C61.3154 22.5 61.875 23.0596 61.875 23.75V26.25C61.875 26.9404 61.3154 27.5 60.625 27.5Z" fill="#E21C21"/>
<path id="Shape_6" d="M60.625 35C59.9346 35 59.375 34.4404 59.375 33.75V31.25C59.375 30.5596 59.9346 30 60.625 30C61.3154 30 61.875 30.5596 61.875 31.25V33.75C61.875 34.4404 61.3154 35 60.625 35Z" fill="#E21C21"/>
<path id="Shape_7" d="M65.625 30H63.125C62.4346 30 61.875 29.4404 61.875 28.75C61.875 28.0596 62.4346 27.5 63.125 27.5H65.625C66.3154 27.5 66.875 28.0596 66.875 28.75C66.875 29.4404 66.3154 30 65.625 30Z" fill="#E21C21"/>
<path id="Shape_8" d="M58.125 30H55.625C54.9346 30 54.375 29.4404 54.375 28.75C54.375 28.0596 54.9346 27.5 55.625 27.5H58.125C58.8154 27.5 59.375 28.0596 59.375 28.75C59.375 29.4404 58.8154 30 58.125 30Z" fill="#E21C21"/>
</g>
<path id="Shape_9" d="M31.875 10C31.5435 9.99994 31.2256 9.8682 30.9913 9.63376L29.1163 7.75876C28.7913 7.44492 28.661 6.98016 28.7754 6.54313C28.8898 6.10609 29.2311 5.76478 29.6681 5.65039C30.1052 5.53599 30.5699 5.66631 30.8838 5.99126L32.7588 7.86626C33.1161 8.22375 33.223 8.76131 33.0296 9.22833C32.8362 9.69535 32.3805 9.9999 31.875 10Z" fill="#FF5364"/>
<path id="Shape_10" d="M26.25 4.37502C25.9185 4.37495 25.6006 4.24321 25.3663 4.00877L23.4913 2.13377C23.0176 1.6433 23.0243 0.863665 23.5065 0.381498C23.9887 -0.10067 24.7683 -0.107444 25.2588 0.366271L27.1338 2.24127C27.4912 2.59876 27.598 3.13632 27.4046 3.60334C27.2112 4.07036 26.7555 4.37491 26.25 4.37502Z" fill="#FF5364"/>
<path id="Shape_11" d="M24.375 10C23.8695 9.9999 23.4138 9.69535 23.2204 9.22833C23.027 8.76131 23.1339 8.22375 23.4913 7.86626L25.3663 5.99126C25.6801 5.66631 26.1449 5.53599 26.5819 5.65039C27.0189 5.76478 27.3602 6.10609 27.4746 6.54313C27.589 6.98016 27.4587 7.44492 27.1338 7.75876L25.2588 9.63376C25.0244 9.8682 24.7065 9.99994 24.375 10Z" fill="#FF5364"/>
<path id="Shape_12" d="M30 4.37501C29.4945 4.3749 29.0388 4.07035 28.8454 3.60333C28.652 3.13631 28.7589 2.59875 29.1163 2.24126L30.9913 0.36626C31.3051 0.0413146 31.7699 -0.0890054 32.2069 0.0253889C32.6439 0.139783 32.9852 0.481089 33.0996 0.918126C33.214 1.35516 33.0837 1.81992 32.7588 2.13376L30.8838 4.00876C30.6494 4.2432 30.3315 4.37494 30 4.37501Z" fill="#FF5364"/>
<path id="Shape_13" d="M58.3312 10.9062C55.1878 12.0963 52.7097 14.5834 51.5312 17.7312C51.4363 17.9766 51.198 18.1363 50.9349 18.1307C50.6719 18.1251 50.4405 17.9554 50.3562 17.7062C49.1633 14.5733 46.6891 12.099 43.5562 10.9062C43.3001 10.8251 43.126 10.5874 43.126 10.3187C43.126 10.05 43.3001 9.8123 43.5562 9.73119C46.6959 8.54889 49.1739 6.07092 50.3562 2.93119C50.4373 2.67505 50.675 2.50098 50.9437 2.50098C51.2124 2.50098 51.4501 2.67505 51.5312 2.93119C52.7137 6.07955 55.2035 8.56028 58.3562 9.73119C58.6016 9.82604 58.7613 10.0644 58.7557 10.3275C58.7501 10.5905 58.5804 10.8219 58.3312 10.9062Z" fill="#F3D55B"/>
<path id="Shape_14" d="M21.3 21.9124C19.5755 22.7563 18.1813 24.1505 17.3375 25.8749C17.2424 26.1015 17.0207 26.2489 16.775 26.2489C16.5293 26.2489 16.3075 26.1015 16.2125 25.8749C15.3713 24.1486 13.9763 22.7536 12.25 21.9124C12.0234 21.8174 11.876 21.5956 11.876 21.3499C11.876 21.1042 12.0234 20.8825 12.25 20.7874C13.9763 19.9463 15.3713 18.5513 16.2125 16.8249C16.3075 16.5984 16.5293 16.4509 16.775 16.4509C17.0207 16.4509 17.2424 16.5984 17.3375 16.8249C18.1813 18.5494 19.5755 19.9436 21.3 20.7874C21.5266 20.8825 21.674 21.1042 21.674 21.3499C21.674 21.5956 21.5266 21.8174 21.3 21.9124Z" fill="#F3D55B"/>
</g>
</g>
</g>
<defs>
<clipPath id="clip0_237_1558">
<rect width="70" height="70" fill="white"/>
</clipPath>
</defs>
</svg>
