<svg width="54" height="53" viewBox="0 0 54 53" fill="none" xmlns="http://www.w3.org/2000/svg">
<g id="trash 1">
<path id="Vector" d="M44 8.53846H35V7.61538C35 5.07046 32.757 3 30 3H24C21.243 3 19 5.07046 19 7.61538V8.53846H10C8.896 8.53846 8 9.36554 8 10.3846V13.1538C8 14.1729 8.896 15 10 15H44C45.104 15 46 14.1729 46 13.1538V10.3846C46 9.36554 45.104 8.53846 44 8.53846ZM23 7.61538C23 7.10677 23.449 6.69231 24 6.69231H30C30.551 6.69231 31 7.10677 31 7.61538V8.53846H23V7.61538Z" fill="#FF0303"/>
<path id="Vector_2" d="M43.4736 18.6351C43.0901 18.2308 42.5457 18 41.976 18H12.0237C11.454 18 10.9096 18.2308 10.5261 18.6351C10.1426 19.0395 9.95539 19.5806 10.009 20.1245L12.4963 45.0334C12.7786 47.8648 15.3782 50 18.5434 50H35.4563C38.6205 50 41.2211 47.8648 41.5035 45.0334L43.9907 20.1245C44.0454 19.5806 43.8571 19.0395 43.4736 18.6351ZM22.2702 45.1468C22.2267 45.1488 22.1842 45.1507 22.1407 45.1507C21.0813 45.1507 20.1908 44.3614 20.123 43.3335L18.9087 24.9099C18.8389 23.8413 19.6858 22.9201 20.801 22.8522C21.9191 22.794 22.8784 23.5969 22.9482 24.6655L24.1625 43.0892C24.2323 44.1578 23.3854 45.0789 22.2702 45.1468ZM33.8768 43.3335C33.809 44.3614 32.9185 45.1507 31.859 45.1507C31.8165 45.1507 31.773 45.1497 31.7295 45.1468C30.6134 45.0789 29.7674 44.1578 29.8372 43.0892L31.0515 24.6655C31.1224 23.596 32.0786 22.7921 33.1988 22.8522C34.3149 22.9201 35.1609 23.8413 35.091 24.9099L33.8768 43.3335Z" fill="#FF0303"/>
</g>
</svg>
